<?xml version="1.0" encoding="UTF-8"?>
<svg fill="#E0CC1B" viewBox="0 0 11 12" xmlns="http://www.w3.org/2000/svg">
<path d="m10.4 10.773-0.3536 0.3536c-0.19522 0.1952-0.51179 0.1952-0.70709 0l-4.0658-4.0659-4.0659 4.0658c-0.19522 0.1953-0.51181 0.1953-0.70708 0l-0.35356-0.3535c-0.19526-0.1953-0.19526-0.5118 0-0.7071l4.0659-4.0659-4.0659-4.0659c-0.19526-0.19522-0.19526-0.51181 0-0.70707l0.35355-0.35356c0.19526-0.19526 0.51186-0.19526 0.70708 0l4.0659 4.0659 4.0658-4.0659c0.1953-0.19526 0.51187-0.19526 0.70709 0l0.3536 0.35355c0.1953 0.19526 0.1953 0.51186 0 0.70708l-4.0659 4.0659 4.0659 4.0659c0.1953 0.1953 0.1953 0.5118 0 0.7071z" fill="#E0CC1B"/>
</svg>
