<svg width="48" height="48" fill="none" xmlns="http://www.w3.org/2000/svg"><path fill-rule="evenodd" clip-rule="evenodd" d="M5.5 12A6.5 6.5 0 0 1 12 5.5h16a1.5 1.5 0 0 0 0-3H12A9.5 9.5 0 0 0 2.5 12v24a9.5 9.5 0 0 0 9.5 9.5h24a9.5 9.5 0 0 0 9.5-9.5V20a1.5 1.5 0 0 0-3 0v7.018a4.005 4.005 0 0 0-.281-.205l-4.762-3.175a8 8 0 0 0-10.095 1l-6.724 6.724a8 8 0 0 1-10.095 1L5.5 29V12Zm34-8a1.5 1.5 0 0 0-3 0v4.5H32a1.5 1.5 0 0 0 0 3h4.5V16a1.5 1.5 0 0 0 3 0v-4.5H44a1.5 1.5 0 0 0 0-3h-4.5V4ZM17 22a5 5 0 1 0 0-10 5 5 0 0 0 0 10Z" fill="#E0CC1B"/></svg>