<svg width="64" height="62" fill="none" xmlns="http://www.w3.org/2000/svg"><g clip-path="url(#a)"><path fill-rule="evenodd" clip-rule="evenodd" d="M0 2.667A2.667 2.667 0 0 1 2.667 0h8c1.148 0 2.168.734 2.53 1.823l2.527 7.579a1.85 1.85 0 0 0 1.755 1.265h42.964a2.667 2.667 0 0 1 2.531 3.51l-7.11 21.333a2.667 2.667 0 0 1-2.53 1.823H24.75a1.708 1.708 0 0 0-1.657 1.294l-.546 2.18c-.252 1.008.415 1.86 1.453 1.86h32A2.667 2.667 0 1 1 56 48H24c-4.38 0-7.687-4.24-6.625-8.49l.724-2.9c.3-1.198.25-2.46-.14-3.63L9.165 6.597a1.85 1.85 0 0 0-1.755-1.265H2.667A2.667 2.667 0 0 1 0 2.667zM16 56a5.333 5.333 0 1 1 10.667 0A5.333 5.333 0 0 1 16 56zm32 0a5.333 5.333 0 1 1 10.667 0A5.333 5.333 0 0 1 48 56zM33 25a4 4 0 1 0 0-8 4 4 0 0 0 0 8zm16-4a4 4 0 1 1-8 0 4 4 0 0 1 8 0zM29.515 32.932C34.618 31.572 36.823 31 39 31c2.177 0 4.382.572 9.485 1.932a2 2 0 0 0 1.03-3.865l-.304-.08C44.501 27.73 41.764 27 39 27c-2.764 0-5.5.73-10.21 1.986l-.305.081a2 2 0 0 0 1.03 3.865z" fill="#ABABAB"/></g><defs><clipPath id="a"><path fill="#fff" d="M0 0h64v62H0z"/></clipPath></defs></svg>