<svg xmlns="http://www.w3.org/2000/svg" width="21" height="21" fill="none" xmlns:v="https://vecta.io/nano"><g clip-path="url(#A)"><path d="M6.446 18.274c-.918-1.043-1.836-2.128-2.42-3.422-.584-1.377-.751-2.963-.459-4.465a9.63 9.63 0 0 1 1.919-4.131 3.98 3.98 0 0 0 1.001 2.921c-.417-2.003.25-4.173 1.586-5.758S11.244.79 13.164.081c-.96 1.001-1.085 2.587-.709 3.922s1.168 2.504 1.878 3.714 1.377 2.462 1.419 3.839c.376-.709.793-1.419 1.043-2.212s.375-1.627.167-2.42c.751.918 1.168 1.836 1.377 3.004s.167 2.378.042 3.547c-.167 1.294-.501 2.629-1.21 3.714-.834 1.293-2.17 2.212-3.63 2.712-2.587.459-5.132.084-7.094-1.627z" fill="#f3705a"/><path d="M9.617 19.818c3.422 1.335 6.801-2.712 4.924-5.842 0-.042-.042-.042-.042-.084.167 1.711-.25 2.963-1.043 3.672.417-1.001.125-2.17-.376-3.171-.501-.96-1.21-1.836-1.752-2.754-.542-.96-.96-2.045-.709-3.129-1.001.751-1.711 1.878-2.003 3.088s-.125 2.545.417 3.672c-.626-.459-1.085-1.21-1.127-2.003-.668.793-1.085 1.836-1.043 2.879 0 1.627 1.294 3.088 2.754 3.672z" fill="#ffd15c"/></g><defs><clipPath id="A"><path fill="#fff" transform="translate(.954 .082)" d="M0 0h20v20H0z"/></clipPath></defs></svg>