<svg width="50" height="50" viewBox="0 0 50 50" fill="none" xmlns="http://www.w3.org/2000/svg">
<g clip-path="url(#clip0_7904_629)">
<path d="M45.4617 30.6892L37.9027 29.1779V26.7172C39.0431 25.5981 39.8519 24.1438 40.1697 22.5148C42.0811 22.1986 43.5479 20.5471 43.5479 18.5479V11.2898C43.5479 5.06386 38.4836 -0.000488281 32.2576 -0.000488281C26.0316 -0.000488281 20.9673 5.06386 20.9673 11.2898V18.5479C20.9673 20.5471 22.4341 22.1986 24.3455 22.514C24.6632 24.1431 25.472 25.5973 26.6124 26.7164V29.1771L19.3544 30.6277V16.935C19.3544 15.6013 18.2687 14.5156 16.935 14.5156H2.41887C1.08515 14.5156 -0.000488281 15.6013 -0.000488281 16.935V42.7415C-0.000488281 44.0752 1.08515 45.1608 2.41887 45.1608H14.5156V49.9995H49.9995V36.2245C49.9995 33.544 48.0905 31.2149 45.4617 30.6892ZM40.3221 20.8188V16.2778C41.2585 16.6117 41.935 17.4989 41.935 18.5487C41.935 19.5989 41.2585 20.4849 40.3221 20.8188ZM32.2576 1.61242C37.594 1.61242 41.935 5.95339 41.935 11.2898V15.343C41.464 14.9866 40.9214 14.7196 40.3221 14.5979V11.2898H38.7092V12.9027H38.0988C36.1075 12.9027 34.2359 12.1278 32.8278 10.7196L32.2576 10.1495L31.6874 10.7196C30.2793 12.1278 28.4076 12.9027 26.4163 12.9027H25.806V11.2898H24.1931V14.5972C23.5937 14.7196 23.0511 14.9858 22.5802 15.3422V11.2898C22.5802 5.95339 26.9211 1.61242 32.2576 1.61242ZM22.5802 18.5479C22.5802 17.4981 23.2567 16.6109 24.1931 16.277V20.818C23.2567 20.4849 22.5802 19.5977 22.5802 18.5479ZM25.806 20.9673V14.5156H26.4163C28.5785 14.5156 30.6246 13.7639 32.2576 12.3841C33.8898 13.7639 35.9366 14.5156 38.0988 14.5156H38.7092V20.9673C38.7092 24.5246 35.8149 27.4189 32.2576 27.4189C28.7002 27.4189 25.806 24.5246 25.806 20.9673ZM32.2576 29.0318C33.7268 29.0318 35.1018 28.6301 36.2898 27.9406V29.6276C35.948 30.2052 34.5683 32.2576 32.2576 32.2576C29.9469 32.2576 28.5671 30.2052 28.2253 29.6276V27.9406C29.4133 28.6301 30.7884 29.0318 32.2576 29.0318ZM27.018 30.7408C27.6858 31.7626 29.4059 33.8705 32.2576 33.8705C35.1093 33.8705 36.8293 31.7626 37.4972 30.7408L44.943 32.23C44.0744 33.281 43.3872 34.4485 42.8875 35.6921L34.1745 39.3231L32.5722 36.9187L22.5802 40.7608V40.6155C22.5802 37.5405 21.5036 34.5938 19.5575 32.2328L27.018 30.7408ZM22.5802 45.9003L30.3316 42.919L31.9567 45.3553L41.935 41.1553V48.3866H22.5802V45.9003ZM41.9956 39.3794L32.5592 43.3526L30.9585 40.9502L22.5802 44.172V42.489L31.9445 38.8876L33.5681 41.3223L42.2697 37.6964C42.1457 38.2489 42.048 38.8084 41.9956 39.3794ZM17.7414 37.0963H1.61242V20.9673H17.7414V37.0963ZM2.41887 16.1285H16.935C17.3792 16.1285 17.7414 16.49 17.7414 16.935V19.3544H1.61242V16.935C1.61242 16.49 1.97469 16.1285 2.41887 16.1285ZM1.61242 42.7415V38.7092H17.7414V42.7415C17.7414 43.1864 17.3792 43.5479 16.935 43.5479H2.41887C1.97469 43.5479 1.61242 43.1864 1.61242 42.7415ZM16.1285 45.1608H16.935C18.2687 45.1608 19.3544 44.0752 19.3544 42.7415V34.7332C20.3994 36.5037 20.9673 38.5261 20.9673 40.6155V48.3866H16.1285V45.1608ZM48.3866 48.3866H43.5479V40.6155C43.5479 37.7157 44.6174 34.9884 46.5504 32.8553C47.6625 33.5842 48.3866 34.834 48.3866 36.2245V48.3866ZM6.45113 40.3221H12.9027V41.935H6.45113V40.3221ZM35.4834 16.935C35.4834 16.49 35.8449 16.1285 36.2898 16.1285C36.7348 16.1285 37.0963 16.49 37.0963 16.935C37.0963 17.38 36.7348 17.7414 36.2898 17.7414C35.8449 17.7414 35.4834 17.38 35.4834 16.935ZM28.2253 17.7414C27.7804 17.7414 27.4189 17.38 27.4189 16.935C27.4189 16.49 27.7804 16.1285 28.2253 16.1285C28.6703 16.1285 29.0318 16.49 29.0318 16.935C29.0318 17.38 28.6703 17.7414 28.2253 17.7414ZM29.0318 21.7737H30.6447C30.6447 22.6632 31.368 23.3866 32.2576 23.3866C33.1471 23.3866 33.8705 22.6632 33.8705 21.7737H35.4834C35.4834 23.5528 34.0367 24.9995 32.2576 24.9995C30.4785 24.9995 29.0318 23.5528 29.0318 21.7737ZM15.6962 7.21741C16.4955 6.41884 16.935 5.35761 16.935 4.22708C16.935 1.89633 15.0382 -0.000488281 12.7066 -0.000488281C11.5785 -0.000488281 10.5165 0.438965 9.71631 1.23754L9.67693 1.27771L9.63598 1.23675C8.83662 0.438965 7.77539 -0.000488281 6.64723 -0.000488281C4.31568 -0.000488281 2.41887 1.89633 2.41887 4.22708C2.41887 5.35761 2.85832 6.41884 3.65768 7.21662L9.67693 13.2367L15.6962 7.21741ZM4.03177 4.22708C4.03177 2.78508 5.20522 1.61242 6.64723 1.61242C7.34539 1.61242 8.00181 1.88412 8.49561 2.37791L9.67693 3.56003L10.8575 2.3787C11.3521 1.88412 12.0093 1.61242 12.7066 1.61242C14.1486 1.61242 15.3221 2.78508 15.3221 4.22708C15.3221 4.92603 15.0504 5.58246 14.5558 6.07625L9.67693 10.9559L4.79727 6.07546C4.30347 5.58246 4.03177 4.92603 4.03177 4.22708Z" fill="url(#paint0_linear_7904_629)"/>
</g>
<defs>
<linearGradient id="paint0_linear_7904_629" x1="24.9999" y1="49.9995" x2="24.9999" y2="-0.00047636" gradientUnits="userSpaceOnUse">
<stop stop-color="#2B96EA"/>
<stop offset="1" stop-color="#E0CC1B"/>
</linearGradient>
<clipPath id="clip0_7904_629">
<rect width="50" height="50" fill="white" transform="translate(-0.000244141)"/>
</clipPath>
</defs>
</svg>
