<svg xmlns="http://www.w3.org/2000/svg" viewBox="0 0 25 25" fill="#E0CC1B" xmlns:v="https://vecta.io/nano"><path fill-rule="evenodd" d="M16.954 3.082h-8a5 5 0 0 0-5 5v8a5 5 0 0 0 5 5h8a5 5 0 0 0 5-5v-8a5 5 0 0 0-5-5zm3.25 13a3.26 3.26 0 0 1-3.25 3.25h-8a3.26 3.26 0 0 1-3.25-3.25v-8a3.26 3.26 0 0 1 3.25-3.25h8a3.26 3.26 0 0 1 3.25 3.25v8zm-2.5-7.75a1 1 0 1 0 0-2 1 1 0 1 0 0 2zm-4.75-.75a4.5 4.5 0 0 0 0 9 4.5 4.5 0 0 0 4.5-4.5 4.49 4.49 0 0 0-4.5-4.5zm-2.75 4.5a2.75 2.75 0 1 0 5.5 0 2.75 2.75 0 1 0-5.5 0z"/></svg>