<svg width="33" height="33" viewBox="0 0 33 33" fill="none" xmlns="http://www.w3.org/2000/svg">
<g clip-path="url(#clip0_5282_41451)">
<path d="M16.9541 32.0815C25.7907 32.0815 32.9541 24.9181 32.9541 16.0815C32.9541 7.24499 25.7907 0.081543 16.9541 0.081543C8.11755 0.081543 0.954102 7.24499 0.954102 16.0815C0.954102 24.9181 8.11755 32.0815 16.9541 32.0815Z" fill="#FC4581"/>
<path d="M25.4879 2.54572H8.42041C8.72499 2.35322 9.03624 2.17093 9.35416 1.99885C11.6059 0.780261 14.1185 0.123517 16.6785 0.0844727H17.2298C17.536 0.0888477 17.8398 0.103223 18.1417 0.125098C20.7523 0.314977 23.2757 1.14645 25.4879 2.54572Z" fill="#DB1B1B"/>
<path d="M28.5017 5.00715H5.40674C5.42174 4.9909 5.43736 4.97527 5.45299 4.95902C5.74466 4.65902 6.0457 4.3709 6.35611 4.09465C6.65486 3.8309 6.9634 3.57777 7.28174 3.33527C7.64924 3.05652 8.03174 2.79215 8.42049 2.5459H25.488C26.589 3.24065 27.601 4.06718 28.5017 5.00715Z" fill="white"/>
<path d="M30.4395 7.46746H3.46826C3.69639 7.11184 3.93826 6.76434 4.19326 6.42871C4.56968 5.93159 4.97474 5.45683 5.40639 5.00684H28.5014C29.2258 5.76217 29.8749 6.58627 30.4395 7.46746Z" fill="#DB1B1B"/>
<path d="M31.7277 9.92902H2.18018C2.25768 9.74152 2.33893 9.55777 2.42455 9.37402C2.69649 8.78569 3.00394 8.21443 3.34518 7.6634C3.3858 7.6009 3.42705 7.5334 3.47018 7.46777H30.4396C30.9396 8.24919 31.3707 9.07273 31.7277 9.92902Z" fill="white"/>
<path d="M32.5253 12.3897H1.38281C1.47198 12.0084 1.57615 11.6334 1.69531 11.2647C1.83823 10.8097 2.00073 10.3647 2.18281 9.92969H31.7278C32.0603 10.7266 32.327 11.5493 32.5253 12.3897Z" fill="#DB1B1B"/>
<path d="M32.9072 14.8509H1.00098C1.06361 14.0217 1.1913 13.1988 1.38285 12.3896H32.5254C32.7169 13.1988 32.8446 14.0217 32.9072 14.8509Z" fill="white"/>
<path d="M32.9541 16.0812C32.9541 16.495 32.9385 16.9052 32.9072 17.3118H1.00098C0.969727 16.9056 0.954102 16.4954 0.954102 16.0812V15.2843C0.954164 15.3051 0.960007 15.3254 0.970977 15.3431C0.970977 15.3 0.974727 15.2568 0.977227 15.2143C0.983477 15.0925 0.991602 14.9718 1.00098 14.8506H32.9072C32.9385 15.2568 32.9541 15.667 32.9541 16.0812Z" fill="#DB1B1B"/>
<path d="M32.9072 17.312C32.8446 18.1412 32.717 18.9641 32.5254 19.7733H1.38285C1.19124 18.9641 1.06356 18.1412 1.00098 17.312H32.9072Z" fill="white"/>
<path d="M32.5253 19.7734C32.3275 20.6141 32.0607 21.4371 31.7278 22.2341H2.18031C1.8474 21.4371 1.58067 20.6141 1.38281 19.7734H32.5253Z" fill="#DB1B1B"/>
<path d="M31.7277 22.2339C31.371 23.0904 30.94 23.9139 30.4396 24.6951H3.4683C2.96783 23.9139 2.53681 23.0904 2.18018 22.2339H31.7277Z" fill="white"/>
<path d="M30.4399 24.6953C29.8756 25.5768 29.2267 26.4011 28.5024 27.1566H5.40674C4.6824 26.4011 4.03349 25.5768 3.46924 24.6953H30.4399Z" fill="#DB1B1B"/>
<path d="M28.5017 27.1562C27.6005 28.0957 26.5885 28.9222 25.488 29.6175H8.42049C7.31994 28.9222 6.30794 28.0957 5.40674 27.1562H28.5017Z" fill="white"/>
<path d="M25.488 29.6177C23.0251 31.1769 20.1811 32.0292 17.2667 32.0814H16.6417C13.7267 32.0306 10.8818 31.1793 8.41797 29.6208L25.488 29.6177Z" fill="#DB1B1B"/>
<path d="M18.1416 0.125098V17.3126H1.00098C0.969727 16.9059 0.954102 16.4955 0.954102 16.0813V15.2845C0.954164 15.3052 0.960007 15.3256 0.970977 15.3432C0.970977 15.3001 0.974727 15.257 0.977227 15.2145C0.983477 15.0926 0.991602 14.972 1.00098 14.8507C1.06361 14.0216 1.1913 13.1986 1.38285 12.3895C1.47202 12.0082 1.57618 11.6332 1.69535 11.2645C1.83827 10.8095 2.00077 10.3645 2.18285 9.92947C2.26035 9.74197 2.3416 9.55822 2.42723 9.37447C2.69917 8.78614 3.00661 8.21488 3.34785 7.66385C3.38848 7.60135 3.42973 7.53385 3.47285 7.46822C3.70098 7.1126 3.94285 6.7651 4.19785 6.42947C4.57284 5.93226 4.97643 5.45729 5.4066 5.00697C5.4216 4.99072 5.43723 4.9751 5.45285 4.95885C5.74452 4.65885 6.04556 4.37072 6.35598 4.09447C6.65473 3.83072 6.96327 3.5776 7.2816 3.3351C7.6491 3.05635 8.0316 2.79197 8.42035 2.54572C8.72494 2.35322 9.03618 2.17093 9.3541 1.99885C11.6058 0.780261 14.1185 0.123517 16.6785 0.0844727H17.2297C17.536 0.0888477 17.8397 0.103223 18.1416 0.125098Z" fill="#3E436D"/>
<path d="M16.292 1.10633L16.5107 1.77946C16.5181 1.80232 16.5326 1.82226 16.552 1.83641C16.5714 1.85055 16.5948 1.85819 16.6189 1.85821H17.3295C17.3531 1.85913 17.3758 1.86739 17.3945 1.88183C17.4132 1.89627 17.427 1.91618 17.4339 1.93879C17.4407 1.9614 17.4404 1.98559 17.4329 2.008C17.4254 2.03041 17.4111 2.04993 17.392 2.06383L16.8189 2.48008C16.7997 2.49395 16.7854 2.51349 16.778 2.53592C16.7706 2.55836 16.7705 2.58256 16.7776 2.60508L16.9964 3.27883C17.0031 3.30153 17.0025 3.32576 16.9949 3.34814C16.9872 3.37052 16.9727 3.38995 16.9534 3.40371C16.9341 3.41746 16.9111 3.42487 16.8874 3.42489C16.8637 3.42492 16.8406 3.41755 16.8214 3.40383L16.2489 2.98758C16.2294 2.97355 16.206 2.966 16.182 2.966C16.158 2.966 16.1346 2.97355 16.1151 2.98758L15.542 3.40383C15.5227 3.41755 15.4996 3.42492 15.4759 3.42489C15.4523 3.42487 15.4292 3.41746 15.4099 3.40371C15.3907 3.38995 15.3762 3.37052 15.3685 3.34814C15.3608 3.32576 15.3603 3.30153 15.367 3.27883L15.5864 2.60508C15.5932 2.58254 15.5929 2.55843 15.5855 2.53606C15.5781 2.51368 15.564 2.49413 15.5451 2.48008L14.972 2.06383C14.9526 2.04969 14.9382 2.02979 14.9308 2.00697C14.9234 1.98415 14.9235 1.95959 14.9309 1.93678C14.9383 1.91397 14.9527 1.89409 14.9721 1.87998C14.9915 1.86587 15.0149 1.85825 15.0389 1.85821H15.747C15.771 1.85809 15.7943 1.85042 15.8138 1.83629C15.8332 1.82216 15.8476 1.80227 15.8551 1.77946L16.0739 1.10633C16.0808 1.08282 16.0952 1.06218 16.1149 1.04751C16.1345 1.03283 16.1584 1.0249 16.1829 1.0249C16.2074 1.0249 16.2313 1.03283 16.251 1.04751C16.2706 1.06218 16.285 1.08282 16.292 1.10633Z" fill="white"/>
<path d="M8.69305 2.54568C8.68734 2.56613 8.68734 2.58774 8.69305 2.60818L8.91242 3.28068C8.91915 3.30338 8.91862 3.32761 8.91092 3.34999C8.90322 3.37237 8.88873 3.3918 8.86947 3.40555C8.85021 3.41931 8.82714 3.42672 8.80347 3.42674C8.7798 3.42677 8.75671 3.4194 8.73742 3.40568L8.1643 2.99006C8.14492 2.97608 8.12163 2.96855 8.09773 2.96855C8.07384 2.96855 8.05055 2.97608 8.03117 2.99006L7.45805 3.40568C7.44252 3.41717 7.4243 3.42448 7.40514 3.42693C7.38598 3.42938 7.36652 3.42688 7.3486 3.41967C7.33068 3.41247 7.3149 3.40079 7.30277 3.38576C7.29064 3.37073 7.28256 3.35285 7.2793 3.33381C7.6468 3.05506 8.0293 2.79068 8.41805 2.54443C8.72263 2.35193 9.03388 2.16964 9.3518 1.99756C9.34463 2.02288 9.32896 2.04495 9.30742 2.06006L8.7343 2.47631C8.71266 2.49373 8.69802 2.51835 8.69305 2.54568Z" fill="white"/>
<path d="M16.2916 6.34489L16.5103 7.01864C16.5177 7.04144 16.5322 7.0613 16.5516 7.07534C16.5711 7.08938 16.5945 7.09688 16.6184 7.09677H17.3291C17.353 7.09681 17.3764 7.10443 17.3958 7.11854C17.4152 7.13265 17.4296 7.15253 17.437 7.17534C17.4445 7.19814 17.4445 7.22271 17.4371 7.24553C17.4297 7.26835 17.4153 7.28825 17.3959 7.30239L16.8228 7.71864C16.8037 7.73251 16.7894 7.75204 16.782 7.77448C16.7746 7.79692 16.7744 7.82112 16.7816 7.84364L16.9978 8.51864C17.0045 8.54134 17.004 8.56557 16.9963 8.58795C16.9886 8.61033 16.9741 8.62976 16.9549 8.64351C16.9356 8.65727 16.9125 8.66468 16.8889 8.6647C16.8652 8.66473 16.8421 8.65736 16.8228 8.64364L16.2503 8.22739C16.2308 8.21336 16.2074 8.2058 16.1834 8.2058C16.1594 8.2058 16.136 8.21336 16.1166 8.22739L15.5434 8.64364C15.5242 8.65736 15.5011 8.66473 15.4774 8.6647C15.4537 8.66468 15.4307 8.65727 15.4114 8.64351C15.3921 8.62976 15.3776 8.61033 15.3699 8.58795C15.3622 8.56557 15.3617 8.54134 15.3684 8.51864L15.5878 7.84489C15.5947 7.82235 15.5944 7.79824 15.587 7.77586C15.5796 7.75349 15.5655 7.73394 15.5466 7.71989L14.9734 7.30364C14.9541 7.2895 14.9397 7.2696 14.9323 7.24678C14.9249 7.22396 14.9249 7.1994 14.9323 7.17659C14.9398 7.15378 14.9542 7.1339 14.9736 7.11979C14.993 7.10568 15.0163 7.09806 15.0403 7.09802H15.7484C15.7724 7.09804 15.7957 7.0905 15.8152 7.07647C15.8346 7.06244 15.8491 7.04264 15.8566 7.01989L16.0753 6.34614C16.0826 6.3233 16.097 6.30335 16.1163 6.28915C16.1357 6.27495 16.159 6.26723 16.183 6.26709C16.207 6.26695 16.2304 6.2744 16.2499 6.28838C16.2694 6.30235 16.284 6.32213 16.2916 6.34489Z" fill="white"/>
<path d="M12.2501 6.34507L12.4688 7.01882C12.4762 7.04162 12.4907 7.06148 12.5101 7.07552C12.5296 7.08956 12.553 7.09706 12.5769 7.09695H13.2851C13.309 7.09699 13.3324 7.10461 13.3518 7.11872C13.3712 7.13283 13.3856 7.15271 13.393 7.17552C13.4005 7.19832 13.4005 7.22289 13.3931 7.24571C13.3857 7.26853 13.3713 7.28843 13.3519 7.30257L12.7788 7.71882C12.7598 7.73275 12.7455 7.75229 12.7381 7.7747C12.7307 7.79712 12.7305 7.82129 12.7376 7.84382L12.9544 8.51882C12.9614 8.54149 12.9611 8.56578 12.9535 8.58825C12.946 8.61073 12.9315 8.63026 12.9122 8.64408C12.893 8.6579 12.8698 8.66531 12.8461 8.66526C12.8224 8.66522 12.7993 8.65772 12.7801 8.64382L12.2069 8.22757C12.1875 8.21354 12.1641 8.20598 12.1401 8.20598C12.1161 8.20598 12.0927 8.21354 12.0732 8.22757L11.5019 8.64382C11.4827 8.65772 11.4596 8.66522 11.4359 8.66526C11.4122 8.66531 11.389 8.6579 11.3698 8.64408C11.3505 8.63026 11.336 8.61073 11.3285 8.58825C11.3209 8.56578 11.3206 8.54149 11.3276 8.51882L11.5463 7.84507C11.5533 7.82254 11.5531 7.79837 11.5457 7.77595C11.5383 7.75354 11.5241 7.734 11.5051 7.72007L10.9319 7.30382C10.9126 7.28968 10.8982 7.26978 10.8908 7.24696C10.8834 7.22414 10.8834 7.19957 10.8908 7.17677C10.8982 7.15396 10.9127 7.13408 10.9321 7.11997C10.9515 7.10586 10.9748 7.09824 10.9988 7.0982H11.7044C11.7284 7.09831 11.7518 7.09081 11.7712 7.07677C11.7907 7.06272 11.8051 7.04287 11.8126 7.02007L12.0313 6.34632C12.038 6.32251 12.0522 6.30152 12.0718 6.28652C12.0915 6.27152 12.1155 6.26333 12.1402 6.26319C12.1649 6.26304 12.189 6.27096 12.2089 6.28574C12.2287 6.30051 12.2431 6.32134 12.2501 6.34507Z" fill="white"/>
<path d="M5.2666 7.30316L5.03973 7.46754L4.69348 7.71754C4.67449 7.73153 4.66033 7.75107 4.65294 7.77347C4.64555 7.79586 4.6453 7.82 4.65223 7.84254L4.87285 8.51879C4.87918 8.54142 4.87838 8.56545 4.87056 8.58761C4.86275 8.60977 4.8483 8.62899 4.82918 8.64264C4.81006 8.6563 4.78719 8.66374 4.7637 8.66394C4.7402 8.66415 4.71721 8.65711 4.69785 8.64379L4.12535 8.22691C4.10588 8.21288 4.08248 8.20533 4.05848 8.20533C4.03447 8.20533 4.01108 8.21288 3.9916 8.22691L3.41848 8.64379C3.39912 8.65711 3.37613 8.66415 3.35264 8.66394C3.32914 8.66374 3.30627 8.6563 3.28715 8.64264C3.26803 8.62899 3.25358 8.60977 3.24577 8.58761C3.23795 8.56545 3.23715 8.54142 3.24348 8.51879L3.46285 7.84566C3.46951 7.82311 3.46912 7.79906 3.46175 7.77672C3.45438 7.75439 3.44038 7.73483 3.4216 7.72066L3.34535 7.66504C3.38598 7.60254 3.42723 7.53504 3.47035 7.46941C3.69848 7.11379 3.94035 6.76629 4.19535 6.43066L4.38535 7.01879C4.39275 7.04165 4.40719 7.06159 4.42662 7.07574C4.44604 7.08988 4.46945 7.09752 4.49348 7.09754H5.2041C5.22753 7.09882 5.25 7.10727 5.26846 7.12175C5.28692 7.13623 5.30048 7.15603 5.3073 7.17848C5.31413 7.20093 5.31388 7.22493 5.3066 7.24724C5.29932 7.26954 5.28536 7.28907 5.2666 7.30316Z" fill="white"/>
<path d="M16.292 11.6817L16.5107 12.3555C16.5182 12.3782 16.5327 12.398 16.5522 12.4121C16.5716 12.4261 16.5949 12.4336 16.6189 12.4336H17.3295C17.3535 12.4337 17.3768 12.4413 17.3962 12.4554C17.4156 12.4695 17.4301 12.4894 17.4375 12.5122C17.4449 12.535 17.4449 12.5596 17.4375 12.5824C17.4301 12.6052 17.4157 12.6251 17.3964 12.6392L16.8232 13.0555C16.8041 13.0694 16.7898 13.0889 16.7824 13.1113C16.775 13.1338 16.7749 13.158 16.782 13.1805L17.0007 13.8542C17.0075 13.8769 17.0069 13.9012 16.9992 13.9235C16.9915 13.9459 16.9771 13.9654 16.9578 13.9791C16.9385 13.9929 16.9155 14.0003 16.8918 14.0003C16.8681 14.0003 16.845 13.993 16.8257 13.9792L16.2532 13.563C16.2338 13.549 16.2104 13.5414 16.1864 13.5414C16.1624 13.5414 16.139 13.549 16.1195 13.563L15.5464 13.9792C15.5271 13.993 15.504 14.0003 15.4803 14.0003C15.4567 14.0003 15.4336 13.9929 15.4143 13.9791C15.3951 13.9654 15.3806 13.9459 15.3729 13.9235C15.3652 13.9012 15.3646 13.8769 15.3714 13.8542L15.5907 13.1805C15.5976 13.1579 15.5973 13.1338 15.5899 13.1115C15.5825 13.0891 15.5684 13.0695 15.5495 13.0555L14.9764 12.6392C14.957 12.6251 14.9426 12.6052 14.9352 12.5824C14.9278 12.5596 14.9278 12.535 14.9353 12.5122C14.9427 12.4894 14.9571 12.4695 14.9765 12.4554C14.9959 12.4413 15.0193 12.4337 15.0432 12.4336H15.7514C15.7753 12.4335 15.7986 12.426 15.818 12.4119C15.8374 12.3979 15.8519 12.3782 15.8595 12.3555L16.0782 11.6817C16.0862 11.6598 16.1008 11.6409 16.1199 11.6275C16.139 11.6141 16.1618 11.6069 16.1851 11.6069C16.2085 11.6069 16.2312 11.6141 16.2503 11.6275C16.2695 11.6409 16.284 11.6598 16.292 11.6817Z" fill="white"/>
<path d="M12.25 11.6822L12.4687 12.3559C12.4762 12.3787 12.4907 12.3985 12.5101 12.4125C12.5296 12.4265 12.5529 12.4341 12.5769 12.434H13.285C13.309 12.4341 13.3323 12.4417 13.3517 12.4558C13.3711 12.4699 13.3855 12.4898 13.393 12.5126C13.4004 12.5354 13.4004 12.56 13.393 12.5828C13.3856 12.6056 13.3712 12.6255 13.3519 12.6397L12.7787 13.0559C12.7597 13.0698 12.7455 13.0894 12.7381 13.1118C12.7307 13.1342 12.7305 13.1584 12.7375 13.1809L12.9544 13.8565C12.9613 13.8792 12.961 13.9035 12.9535 13.926C12.9459 13.9485 12.9314 13.968 12.9122 13.9818C12.8929 13.9956 12.8697 14.003 12.846 14.003C12.8223 14.0029 12.7992 13.9954 12.78 13.9815L12.2069 13.5653C12.1874 13.5513 12.164 13.5437 12.14 13.5437C12.116 13.5437 12.0926 13.5513 12.0731 13.5653L11.5 13.9815C11.4808 13.9954 11.4577 14.0029 11.4339 14.003C11.4102 14.003 11.3871 13.9956 11.3678 13.9818C11.3485 13.968 11.3341 13.9485 11.3265 13.926C11.3189 13.9035 11.3186 13.8792 11.3256 13.8565L11.5444 13.1828C11.5514 13.1603 11.5512 13.1361 11.5438 13.1137C11.5364 13.0913 11.5222 13.0717 11.5031 13.0578L10.93 12.6415C10.9106 12.6274 10.8962 12.6075 10.8888 12.5847C10.8814 12.5619 10.8815 12.5373 10.8889 12.5145C10.8963 12.4917 10.9107 12.4718 10.9301 12.4577C10.9495 12.4436 10.9729 12.436 10.9969 12.4359H11.7044C11.7283 12.4359 11.7517 12.4284 11.7711 12.4144C11.7905 12.4003 11.805 12.3805 11.8125 12.3578L12.0312 11.684C12.0378 11.6602 12.052 11.6392 12.0716 11.6241C12.0912 11.6091 12.1152 11.6008 12.1399 11.6006C12.1646 11.6004 12.1887 11.6082 12.2086 11.6229C12.2285 11.6377 12.243 11.6585 12.25 11.6822Z" fill="white"/>
<path d="M8.20827 11.6821L8.42702 12.3559C8.4346 12.3786 8.44911 12.3983 8.46851 12.4123C8.48791 12.4263 8.51121 12.4339 8.53514 12.434H9.24327C9.26725 12.434 9.29061 12.4417 9.31 12.4558C9.32939 12.4699 9.34383 12.4898 9.35125 12.5126C9.35866 12.5354 9.35868 12.5599 9.3513 12.5828C9.34392 12.6056 9.32951 12.6255 9.31014 12.6396L8.73702 13.0559C8.7181 13.0699 8.70399 13.0895 8.69661 13.1118C8.68922 13.1342 8.68893 13.1583 8.69577 13.1809L8.91514 13.8546C8.92186 13.8773 8.92134 13.9015 8.91364 13.9239C8.90594 13.9463 8.89145 13.9657 8.87219 13.9795C8.85293 13.9932 8.82986 14.0007 8.80619 14.0007C8.78252 14.0007 8.75943 13.9933 8.74014 13.9796L8.16702 13.5634C8.14764 13.5494 8.12435 13.5419 8.10045 13.5419C8.07656 13.5419 8.05327 13.5494 8.03389 13.5634L7.46077 13.9796C7.44148 13.9933 7.41839 14.0007 7.39472 14.0007C7.37105 14.0007 7.34798 13.9932 7.32872 13.9795C7.30945 13.9657 7.29497 13.9463 7.28727 13.9239C7.27957 13.9015 7.27904 13.8773 7.28577 13.8546L7.50452 13.1809C7.51164 13.1583 7.51149 13.1341 7.50408 13.1117C7.49668 13.0893 7.4824 13.0697 7.46327 13.0559L6.89202 12.6396C6.87291 12.6257 6.85861 12.6062 6.85111 12.5838C6.8436 12.5614 6.84326 12.5372 6.85013 12.5146C6.857 12.492 6.87075 12.4721 6.88946 12.4576C6.90816 12.4432 6.9309 12.4349 6.95452 12.434H7.66264C7.68659 12.434 7.70994 12.4265 7.72936 12.4124C7.74877 12.3984 7.76326 12.3786 7.77077 12.3559L7.98952 11.6821C7.99631 11.6583 8.01065 11.6374 8.03039 11.6225C8.05012 11.6077 8.07417 11.5996 8.09889 11.5996C8.12361 11.5996 8.14766 11.6077 8.16739 11.6225C8.18713 11.6374 8.20148 11.6583 8.20827 11.6821Z" fill="white"/>
<path d="M4.16698 11.6819L4.38573 12.3557C4.39323 12.3784 4.40772 12.3982 4.42713 12.4123C4.44655 12.4263 4.4699 12.4338 4.49385 12.4338H5.20448C5.22809 12.4347 5.25083 12.443 5.26954 12.4574C5.28824 12.4719 5.30199 12.4918 5.30886 12.5144C5.31573 12.537 5.31539 12.5612 5.30789 12.5836C5.30038 12.606 5.28608 12.6255 5.26698 12.6394L4.69385 13.0557C4.67472 13.0696 4.66044 13.0891 4.65304 13.1115C4.64563 13.134 4.64548 13.1582 4.6526 13.1807L4.87135 13.8544C4.87807 13.8771 4.87755 13.9014 4.86985 13.9237C4.86215 13.9461 4.84766 13.9656 4.8284 13.9793C4.80914 13.9931 4.78607 14.0005 4.7624 14.0005C4.73873 14.0005 4.71564 13.9932 4.69635 13.9794L4.12385 13.5632C4.10438 13.5492 4.08098 13.5416 4.05698 13.5416C4.03297 13.5416 4.00957 13.5492 3.9901 13.5632L3.41698 13.9794C3.39769 13.9932 3.3746 14.0005 3.35093 14.0005C3.32726 14.0005 3.30419 13.9931 3.28493 13.9793C3.26566 13.9656 3.25117 13.9461 3.24348 13.9237C3.23578 13.9014 3.23525 13.8771 3.24198 13.8544L3.46135 13.1807C3.46819 13.1581 3.46789 13.134 3.46051 13.1117C3.45313 13.0893 3.43901 13.0697 3.4201 13.0557L2.84698 12.6394C2.8276 12.6253 2.8132 12.6054 2.80582 12.5826C2.79843 12.5598 2.79845 12.5352 2.80587 12.5124C2.81329 12.4896 2.82772 12.4697 2.84712 12.4556C2.86651 12.4415 2.88987 12.4339 2.91385 12.4338H3.62385C3.64778 12.4337 3.67109 12.4262 3.69048 12.4121C3.70988 12.3981 3.72439 12.3784 3.73198 12.3557L3.95073 11.6819C3.95818 11.6591 3.97265 11.6393 3.99207 11.6252C4.01149 11.6111 4.03486 11.6035 4.05885 11.6035C4.08284 11.6035 4.10622 11.6111 4.12564 11.6252C4.14506 11.6393 4.15953 11.6591 4.16698 11.6819Z" fill="white"/>
<path d="M14.2708 3.57567L14.4895 4.24942C14.497 4.27217 14.5115 4.29197 14.5309 4.306C14.5503 4.32002 14.5737 4.32757 14.5976 4.32755H15.3058C15.3297 4.32759 15.3531 4.33521 15.3725 4.34932C15.3919 4.36343 15.4063 4.38331 15.4137 4.40611C15.4212 4.42892 15.4212 4.45349 15.4138 4.47631C15.4064 4.49913 15.392 4.51903 15.3726 4.53317L14.7995 4.94942C14.7806 4.96347 14.7665 4.98302 14.7591 5.00539C14.7517 5.02777 14.7514 5.05187 14.7583 5.07442L14.9776 5.74817C14.9844 5.77087 14.9838 5.79509 14.9761 5.81748C14.9684 5.83986 14.954 5.85928 14.9347 5.87304C14.9154 5.8868 14.8924 5.89421 14.8687 5.89423C14.845 5.89425 14.8219 5.88689 14.8026 5.87317L14.2295 5.45692C14.2101 5.44294 14.1869 5.43541 14.163 5.43541C14.1391 5.43541 14.1158 5.44294 14.0964 5.45692L13.5233 5.87317C13.504 5.88689 13.4809 5.89425 13.4572 5.89423C13.4336 5.89421 13.4105 5.8868 13.3912 5.87304C13.372 5.85928 13.3575 5.83986 13.3498 5.81748C13.3421 5.79509 13.3415 5.77087 13.3483 5.74817L13.567 5.07442C13.5741 5.05189 13.574 5.02769 13.5666 5.00526C13.5592 4.98282 13.5449 4.96329 13.5258 4.94942L12.9545 4.53317C12.9354 4.51926 12.9211 4.49975 12.9136 4.47734C12.9061 4.45493 12.9058 4.43074 12.9126 4.40813C12.9195 4.38552 12.9332 4.36561 12.952 4.35117C12.9707 4.33673 12.9934 4.32847 13.017 4.32755H13.7251C13.7491 4.32766 13.7725 4.32016 13.7919 4.30612C13.8114 4.29207 13.8258 4.27222 13.8333 4.24942L14.052 3.57567C14.0588 3.5519 14.0732 3.53099 14.0929 3.5161C14.1126 3.50122 14.1367 3.49316 14.1614 3.49316C14.1861 3.49316 14.2102 3.50122 14.2299 3.5161C14.2496 3.53099 14.264 3.5519 14.2708 3.57567Z" fill="white"/>
<path d="M6.67519 5.0068C6.66799 5.02958 6.66799 5.05402 6.67519 5.0768L6.89206 5.74992C6.89863 5.77252 6.89803 5.79661 6.89034 5.81885C6.88264 5.8411 6.86824 5.86041 6.84911 5.87413C6.82997 5.88784 6.80706 5.89528 6.78352 5.89542C6.75998 5.89557 6.73698 5.8884 6.71769 5.87492L6.14456 5.45805C6.12509 5.44401 6.10169 5.43646 6.07769 5.43646C6.05368 5.43646 6.03028 5.44401 6.01081 5.45805L5.43769 5.87492C5.41839 5.8884 5.39539 5.89557 5.37185 5.89542C5.34831 5.89528 5.3254 5.88784 5.30627 5.87413C5.28714 5.86041 5.27273 5.8411 5.26504 5.81885C5.25734 5.79661 5.25674 5.77252 5.26331 5.74992L5.48206 5.0768C5.48925 5.05402 5.48925 5.02958 5.48206 5.0068C5.47789 4.98765 5.46835 4.97009 5.45456 4.95617C5.74623 4.65617 6.04727 4.36805 6.35769 4.0918L6.40769 4.24617C6.4147 4.26971 6.42915 4.29034 6.44886 4.30498C6.46858 4.31963 6.4925 4.3275 6.51706 4.32742H7.22519C7.24914 4.32768 7.27241 4.33545 7.2917 4.34965C7.311 4.36384 7.32536 4.38373 7.33275 4.40651C7.34013 4.4293 7.34018 4.45383 7.33288 4.47664C7.32558 4.49946 7.3113 4.51941 7.29206 4.53367L6.71894 4.9493C6.69843 4.96313 6.68305 4.98334 6.67519 5.0068Z" fill="white"/>
<path d="M3.46725 9.92887C3.46566 9.94446 3.4607 9.95953 3.45272 9.97302C3.44473 9.98651 3.43391 9.9981 3.421 10.007L2.84787 10.4239C2.82896 10.4379 2.81485 10.4575 2.80746 10.4798C2.80008 10.5022 2.79978 10.5263 2.80662 10.5489L3.02537 11.2226C3.03236 11.2453 3.03204 11.2696 3.02447 11.2921C3.0169 11.3145 3.00245 11.3341 2.98317 11.3479C2.96389 11.3617 2.94076 11.3691 2.91704 11.3691C2.89332 11.369 2.87022 11.3615 2.851 11.3476L2.27787 10.932C2.25863 10.9174 2.23515 10.9095 2.211 10.9095C2.18685 10.9095 2.16336 10.9174 2.14412 10.932L1.69287 11.2601C1.83579 10.8051 1.99829 10.3601 2.18037 9.92512C2.25787 9.73762 2.33912 9.55387 2.42475 9.37012L2.53787 9.71949C2.54524 9.74242 2.55966 9.76244 2.57908 9.77669C2.59849 9.79095 2.62191 9.79871 2.646 9.79887H3.35412C3.37048 9.79879 3.38666 9.80224 3.40156 9.80898C3.41646 9.81573 3.42974 9.82561 3.44047 9.83794C3.45121 9.85028 3.45916 9.86479 3.46378 9.88048C3.4684 9.89618 3.46958 9.91268 3.46725 9.92887Z" fill="white"/>
<path d="M14.2706 9.05028L14.4894 9.72403C14.497 9.74673 14.5115 9.76647 14.5309 9.78049C14.5503 9.7945 14.5736 9.80208 14.5975 9.80216H15.3056C15.3296 9.8022 15.353 9.80982 15.3724 9.82393C15.3918 9.83804 15.4062 9.85792 15.4136 9.88073C15.421 9.90353 15.4211 9.9281 15.4137 9.95092C15.4063 9.97374 15.3919 9.99364 15.3725 10.0078L14.7994 10.424C14.7805 10.4381 14.7664 10.4576 14.759 10.48C14.7516 10.5024 14.7513 10.5265 14.7581 10.549L14.9775 11.2228C14.9842 11.2455 14.9837 11.2697 14.976 11.2921C14.9683 11.3145 14.9538 11.3339 14.9346 11.3477C14.9153 11.3614 14.8922 11.3688 14.8686 11.3688C14.8449 11.3689 14.8218 11.3615 14.8025 11.3478L14.2294 10.9315C14.21 10.9175 14.1867 10.91 14.1628 10.91C14.1389 10.91 14.1157 10.9175 14.0963 10.9315L13.5231 11.3478C13.5039 11.3615 13.4808 11.3689 13.4571 11.3688C13.4334 11.3688 13.4104 11.3614 13.3911 11.3477C13.3718 11.3339 13.3573 11.3145 13.3496 11.2921C13.3419 11.2697 13.3414 11.2455 13.3481 11.2228L13.5669 10.549C13.574 10.5265 13.5739 10.5023 13.5665 10.4799C13.5591 10.4574 13.5448 10.4379 13.5256 10.424L12.9544 10.0078C12.935 9.99364 12.9206 9.97374 12.9132 9.95092C12.9059 9.9281 12.9059 9.90353 12.9133 9.88073C12.9207 9.85792 12.9351 9.83804 12.9545 9.82393C12.9739 9.80982 12.9973 9.8022 13.0213 9.80216H13.7294C13.7534 9.80218 13.7767 9.79464 13.7961 9.78061C13.8155 9.76658 13.83 9.74678 13.8375 9.72403L14.0563 9.05028C14.0641 9.02814 14.0787 9.00898 14.0979 8.99543C14.117 8.98188 14.14 8.97461 14.1635 8.97461C14.187 8.97461 14.2099 8.98188 14.2291 8.99543C14.2483 9.00898 14.2628 9.02814 14.2706 9.05028Z" fill="white"/>
<path d="M10.2295 9.0499L10.4482 9.72365C10.4557 9.7464 10.4702 9.7662 10.4897 9.78023C10.5091 9.79426 10.5324 9.8018 10.5564 9.80178H11.267C11.291 9.80182 11.3143 9.80944 11.3337 9.82355C11.3531 9.83766 11.3676 9.85754 11.375 9.88035C11.3824 9.90315 11.3824 9.92772 11.375 9.95054C11.3676 9.97336 11.3532 9.99326 11.3339 10.0074L10.7607 10.4237C10.7416 10.4375 10.7273 10.4571 10.7199 10.4795C10.7125 10.5019 10.7124 10.5261 10.7195 10.5487L10.9382 11.2224C10.945 11.2451 10.9444 11.2693 10.9367 11.2917C10.929 11.3141 10.9146 11.3335 10.8953 11.3473C10.876 11.361 10.853 11.3684 10.8293 11.3685C10.8056 11.3685 10.7825 11.3611 10.7632 11.3474L10.1907 10.9312C10.1713 10.9171 10.1479 10.9096 10.1239 10.9096C10.0999 10.9096 10.0765 10.9171 10.057 10.9312L9.48387 11.3474C9.46458 11.3611 9.44149 11.3685 9.41782 11.3685C9.39415 11.3684 9.37108 11.361 9.35182 11.3473C9.33256 11.3335 9.31807 11.3141 9.31037 11.2917C9.30267 11.2693 9.30215 11.2451 9.30887 11.2224L9.52824 10.5487C9.53508 10.5261 9.53479 10.502 9.5274 10.4796C9.52002 10.4572 9.50591 10.4377 9.487 10.4237L8.91387 10.0074C8.8945 9.99326 8.88009 9.97336 8.87271 9.95054C8.86533 9.92772 8.86535 9.90315 8.87276 9.88035C8.88018 9.85754 8.89462 9.83766 8.91401 9.82355C8.9334 9.80944 8.95676 9.80182 8.98075 9.80178H9.68887C9.7128 9.8017 9.7361 9.79412 9.7555 9.78011C9.7749 9.76609 9.78941 9.74635 9.797 9.72365L10.0157 9.0499C10.0237 9.02798 10.0383 9.00904 10.0574 8.99566C10.0765 8.98228 10.0993 8.9751 10.1226 8.9751C10.146 8.9751 10.1687 8.98228 10.1878 8.99566C10.207 9.00904 10.2215 9.02798 10.2295 9.0499Z" fill="white"/>
<path d="M2.84807 15.7922C2.82901 15.8061 2.81479 15.8256 2.80739 15.848C2.79999 15.8705 2.79979 15.8946 2.80682 15.9172L3.02557 16.5915C3.03255 16.6142 3.03224 16.6385 3.02466 16.661C3.01709 16.6834 3.00264 16.703 2.98337 16.7168C2.96409 16.7306 2.94096 16.738 2.91724 16.738C2.89352 16.7379 2.87041 16.7304 2.85119 16.7165L2.27807 16.3009C2.25871 16.2866 2.23527 16.2789 2.21119 16.2789C2.18712 16.2789 2.16368 16.2866 2.14432 16.3009L1.57182 16.719C1.55261 16.7332 1.52941 16.7409 1.50556 16.7411C1.4817 16.7412 1.4584 16.7339 1.43899 16.72C1.41957 16.7061 1.40504 16.6865 1.39747 16.6638C1.38989 16.6412 1.38967 16.6168 1.39682 16.594L1.61557 15.9197C1.62279 15.8971 1.62268 15.8729 1.61527 15.8504C1.60786 15.828 1.59352 15.8085 1.57432 15.7947L1.00119 15.3753C0.989179 15.3667 0.978982 15.3559 0.971191 15.3434C0.971191 15.3003 0.974941 15.2572 0.977441 15.2147C0.987838 15.2005 1.00151 15.189 1.0173 15.1813C1.03308 15.1736 1.0505 15.1698 1.06807 15.1703H1.77619C1.80028 15.1701 1.8237 15.1624 1.84311 15.1481C1.86253 15.1339 1.87695 15.1138 1.88432 15.0909L1.96244 14.8509L2.10307 14.4178C2.11052 14.395 2.12499 14.3751 2.14441 14.361C2.16383 14.3469 2.1872 14.3394 2.21119 14.3394C2.23518 14.3394 2.25856 14.3469 2.27798 14.361C2.2974 14.3751 2.31187 14.395 2.31932 14.4178L2.45994 14.8509L2.53807 15.0909C2.54544 15.1138 2.55986 15.1339 2.57927 15.1481C2.59869 15.1624 2.62211 15.1701 2.64619 15.1703H3.35432C3.37833 15.1701 3.40178 15.1776 3.42128 15.1916C3.44077 15.2056 3.45529 15.2255 3.46274 15.2483C3.47019 15.2711 3.47018 15.2958 3.46271 15.3186C3.45524 15.3414 3.4407 15.3613 3.42119 15.3753L2.84807 15.7922Z" fill="white"/>
<path d="M14.2706 14.4175L14.4894 15.0912C14.4969 15.114 14.5114 15.1338 14.5308 15.1478C14.5502 15.1618 14.5736 15.1694 14.5975 15.1693H15.3056C15.3296 15.1694 15.353 15.177 15.3724 15.1911C15.3918 15.2052 15.4062 15.2251 15.4136 15.2479C15.421 15.2707 15.4211 15.2953 15.4137 15.3181C15.4063 15.3409 15.3919 15.3608 15.3725 15.375L14.7994 15.7912C14.7806 15.8054 14.7666 15.8249 14.7592 15.8473C14.7519 15.8696 14.7515 15.8937 14.7581 15.9162L14.9775 16.5893C14.9842 16.612 14.9837 16.6363 14.976 16.6587C14.9683 16.681 14.9538 16.7005 14.9346 16.7142C14.9153 16.728 14.8922 16.7354 14.8686 16.7354C14.8449 16.7354 14.8218 16.7281 14.8025 16.7143L14.2294 16.2981C14.21 16.2841 14.1867 16.2766 14.1628 16.2766C14.1389 16.2766 14.1157 16.2841 14.0963 16.2981L13.5231 16.7143C13.5039 16.7281 13.4808 16.7354 13.4571 16.7354C13.4334 16.7354 13.4104 16.728 13.3911 16.7142C13.3718 16.7005 13.3573 16.681 13.3496 16.6587C13.3419 16.6363 13.3414 16.612 13.3481 16.5893L13.5669 15.9162C13.5738 15.8937 13.5736 15.8695 13.5662 15.8471C13.5588 15.8248 13.5446 15.8052 13.5256 15.7912L12.9544 15.375C12.935 15.3608 12.9206 15.3409 12.9132 15.3181C12.9059 15.2953 12.9059 15.2707 12.9133 15.2479C12.9207 15.2251 12.9351 15.2052 12.9545 15.1911C12.9739 15.177 12.9973 15.1694 13.0213 15.1693H13.7294C13.7534 15.1695 13.7768 15.162 13.7962 15.1479C13.8156 15.1339 13.8301 15.114 13.8375 15.0912L14.0563 14.4175C14.0641 14.3953 14.0787 14.3762 14.0979 14.3626C14.117 14.3491 14.14 14.3418 14.1635 14.3418C14.187 14.3418 14.2099 14.3491 14.2291 14.3626C14.2483 14.3762 14.2628 14.3953 14.2706 14.4175Z" fill="white"/>
<path d="M10.2295 14.4174L10.4482 15.0911C10.4556 15.1139 10.4701 15.1338 10.4895 15.1478C10.509 15.1619 10.5324 15.1694 10.5564 15.1692H11.267C11.2906 15.1702 11.3133 15.1784 11.332 15.1929C11.3507 15.2073 11.3645 15.2272 11.3714 15.2498C11.3782 15.2724 11.3779 15.2966 11.3704 15.319C11.3629 15.3414 11.3486 15.361 11.3295 15.3749L10.7564 15.7911C10.7374 15.8051 10.7232 15.8247 10.7158 15.847C10.7084 15.8694 10.7082 15.8936 10.7151 15.9161L10.9339 16.5892C10.9406 16.6119 10.94 16.6362 10.9324 16.6586C10.9247 16.6809 10.9102 16.7004 10.8909 16.7141C10.8716 16.7279 10.8486 16.7353 10.8249 16.7353C10.8012 16.7353 10.7781 16.728 10.7589 16.7142L10.1864 16.298C10.1669 16.284 10.1435 16.2764 10.1195 16.2764C10.0955 16.2764 10.0721 16.284 10.0526 16.298L9.47948 16.7142C9.46019 16.728 9.4371 16.7353 9.41343 16.7353C9.38976 16.7353 9.36669 16.7279 9.34742 16.7141C9.32816 16.7004 9.31367 16.6809 9.30598 16.6586C9.29828 16.6362 9.29775 16.6119 9.30448 16.5892L9.52385 15.9161C9.5305 15.8936 9.53012 15.8695 9.52275 15.8472C9.51538 15.8248 9.50137 15.8053 9.4826 15.7911L8.90948 15.3749C8.8901 15.3607 8.8757 15.3408 8.86832 15.318C8.86093 15.2952 8.86095 15.2706 8.86837 15.2478C8.87579 15.225 8.89022 15.2051 8.90962 15.191C8.92901 15.1769 8.95237 15.1693 8.97635 15.1692H9.68448C9.70843 15.1693 9.73178 15.1617 9.75119 15.1477C9.77061 15.1337 9.7851 15.1139 9.7926 15.0911L10.0114 14.4174C10.0183 14.3939 10.0327 14.3732 10.0524 14.3585C10.072 14.3439 10.0959 14.3359 10.1204 14.3359C10.1449 14.3359 10.1688 14.3439 10.1885 14.3585C10.2081 14.3732 10.2225 14.3939 10.2295 14.4174Z" fill="white"/>
<path d="M6.18748 14.4177L6.40623 15.0915C6.41378 15.1147 6.42863 15.1348 6.44856 15.1489C6.4685 15.163 6.49246 15.1702 6.51686 15.1696H7.22498C7.24897 15.1696 7.27232 15.1772 7.29172 15.1914C7.31111 15.2055 7.32555 15.2253 7.33296 15.2482C7.34038 15.271 7.3404 15.2955 7.33302 15.3183C7.32564 15.3412 7.31123 15.3611 7.29186 15.3752L6.71873 15.7915C6.69982 15.8055 6.68571 15.8251 6.67832 15.8474C6.67094 15.8698 6.67065 15.8939 6.67748 15.9165L6.89186 16.5921C6.89884 16.6148 6.89853 16.639 6.89096 16.6615C6.88338 16.684 6.86894 16.7035 6.84966 16.7173C6.83038 16.7312 6.80725 16.7386 6.78353 16.7385C6.75981 16.7385 6.73671 16.731 6.71748 16.7171L6.14436 16.3008C6.12488 16.2868 6.10149 16.2792 6.07748 16.2792C6.05348 16.2792 6.03008 16.2868 6.01061 16.3008L5.43748 16.7171C5.41826 16.731 5.39516 16.7385 5.37144 16.7385C5.34772 16.7386 5.32459 16.7312 5.30531 16.7173C5.28603 16.7035 5.27158 16.684 5.26401 16.6615C5.25644 16.639 5.25612 16.6148 5.26311 16.5921L5.48186 15.919C5.48869 15.8964 5.4884 15.8723 5.48102 15.8499C5.47363 15.8276 5.45952 15.808 5.44061 15.794L4.86748 15.3777C4.84811 15.3636 4.83371 15.3437 4.82632 15.3208C4.81894 15.298 4.81896 15.2735 4.82638 15.2507C4.8338 15.2278 4.84823 15.208 4.86763 15.1939C4.88702 15.1797 4.91038 15.1721 4.93436 15.1721H5.64186C5.66583 15.1722 5.68923 15.1647 5.70866 15.1507C5.7281 15.1366 5.74257 15.1168 5.74998 15.094L5.96873 14.4202C5.97525 14.3964 5.98935 14.3753 6.00892 14.3602C6.02848 14.345 6.05244 14.3367 6.07717 14.3364C6.10189 14.3362 6.12603 14.3439 6.14594 14.3586C6.16584 14.3733 6.18043 14.394 6.18748 14.4177Z" fill="white"/>
<path d="M18.8917 0.197598C18.6417 0.226973 18.3917 0.263848 18.1417 0.305098C16.4798 0.585036 14.8732 1.1281 13.3823 1.91385C13.3285 1.94135 13.2754 1.97072 13.2223 1.99885C12.904 2.17093 12.5927 2.35322 12.2885 2.54572H8.42041C8.72499 2.35322 9.03624 2.17093 9.35416 1.99885C11.6059 0.780261 14.1185 0.123517 16.6785 0.0844727H17.2298C17.536 0.0888477 17.8398 0.103223 18.1417 0.125098C18.3917 0.143431 18.6417 0.167598 18.8917 0.197598Z" fill="#DB1B1B"/>
<path d="M12.2886 2.54547C11.9711 2.74464 11.6617 2.95547 11.3605 3.17797C11.2899 3.22922 11.2199 3.28172 11.1499 3.33484C10.8792 3.54109 10.6161 3.75422 10.3599 3.97672C10.3142 4.01484 10.2692 4.05422 10.2242 4.09422C9.93799 4.34734 9.66174 4.61172 9.39424 4.88422L9.48424 4.94672C9.50382 4.96095 9.51828 4.98111 9.52549 5.00422H5.40674C5.42174 4.98797 5.43736 4.97234 5.45299 4.95609C5.74466 4.65609 6.0457 4.36797 6.35611 4.09172C6.65486 3.82797 6.9634 3.57484 7.28174 3.33234C7.64924 3.05359 8.03174 2.78922 8.42049 2.54297L12.2886 2.54547Z" fill="white"/>
<path d="M9.27451 5.00684C8.88356 5.41445 8.5143 5.84234 8.16826 6.28871L8.06139 6.42871C8.00326 6.50559 7.94576 6.58246 7.88889 6.66059L7.77264 7.01871C7.76524 7.04158 7.7508 7.06151 7.73137 7.07566C7.71195 7.08981 7.68854 7.09744 7.66451 7.09746H7.57889C7.49514 7.22246 7.41389 7.34371 7.33389 7.46809H3.46826C3.69639 7.11246 3.93826 6.76496 4.19326 6.42934C4.56966 5.93201 4.97472 5.45703 5.40639 5.00684H9.27451Z" fill="#DB1B1B"/>
<path d="M7.33643 7.46742L7.26768 7.5768L7.2133 7.66305C6.87206 8.21408 6.56462 8.78534 6.29268 9.37367C6.20705 9.5568 6.1258 9.74055 6.0483 9.92805H2.18018C2.25768 9.74055 2.33893 9.5568 2.42455 9.37305C2.69649 8.78472 3.00394 8.21346 3.34518 7.66242C3.3858 7.59992 3.42705 7.53242 3.47018 7.4668L7.33643 7.46742Z" fill="white"/>
<path d="M6.04844 9.92898C5.86635 10.364 5.70385 10.8086 5.56094 11.2627C5.44427 11.6323 5.3401 12.0073 5.24844 12.3877H1.38281C1.47198 12.0065 1.57615 11.6315 1.69531 11.2627C1.83823 10.8077 2.00073 10.3627 2.18281 9.92773L6.04844 9.92898Z" fill="#DB1B1B"/>
<path d="M5.2666 12.6394L5.17848 12.7019C5.02542 13.4098 4.92101 14.1273 4.86598 14.8494H1.00098C1.06361 14.0203 1.1913 13.1973 1.38285 12.3882H5.25098C5.24723 12.4051 5.24285 12.4226 5.2391 12.4388C5.25886 12.4457 5.27633 12.458 5.28958 12.4742C5.30283 12.4904 5.31134 12.51 5.31419 12.5307C5.31703 12.5515 5.31409 12.5726 5.3057 12.5918C5.2973 12.611 5.28377 12.6274 5.2666 12.6394Z" fill="white"/>
<path d="M4.82223 16.0812C4.82223 16.495 4.83785 16.9052 4.8691 17.3118H1.00098C0.969727 16.9056 0.954102 16.4954 0.954102 16.0812V15.2843C0.954164 15.3051 0.960007 15.3254 0.970977 15.3431C0.970977 15.3 0.974727 15.2568 0.977227 15.2143C0.983477 15.0925 0.991602 14.9718 1.00098 14.8506H4.8691C4.85973 14.9718 4.8516 15.0925 4.84535 15.2143C4.84535 15.2568 4.84098 15.3 4.8391 15.3431C4.83342 15.3345 4.8292 15.325 4.8266 15.315C4.8266 15.3093 4.8266 15.3043 4.82348 15.2993C4.82314 15.2943 4.82314 15.2893 4.82348 15.2843L4.82223 16.0812Z" fill="#DB1B1B"/>
<path d="M5.25098 19.7733H1.38285C1.19124 18.9641 1.06356 18.1412 1.00098 17.312H4.8691C4.93168 18.1412 5.05937 18.9641 5.25098 19.7733Z" fill="#DBDBDB"/>
<path d="M6.04844 22.2341H2.18031C1.8474 21.4371 1.58067 20.6141 1.38281 19.7734H5.25094C5.44879 20.6141 5.71552 21.4371 6.04844 22.2341Z" fill="#C11A1A"/>
<path d="M7.33643 24.6951H3.4683C2.96783 23.9139 2.53681 23.0904 2.18018 22.2339H6.0483C6.40493 23.0904 6.83596 23.9139 7.33643 24.6951Z" fill="#DBDBDB"/>
<path d="M9.27486 27.1566H5.40674C4.6824 26.4011 4.03349 25.5768 3.46924 24.6953H7.33736C7.90162 25.5768 8.55052 26.4011 9.27486 27.1566Z" fill="#C11A1A"/>
<path d="M12.2886 29.6175H8.42049C7.31994 28.9222 6.30794 28.0957 5.40674 27.1562H9.27486C10.1761 28.0957 11.1881 28.9222 12.2886 29.6175Z" fill="#DBDBDB"/>
<path d="M18.8917 31.965C18.3524 32.0316 17.81 32.0704 17.2667 32.0812H16.6417C13.7267 32.0304 10.8818 31.1791 8.41797 29.6206H12.2861C14.2859 30.8842 16.5427 31.6852 18.8917 31.965Z" fill="#C11A1A"/>
<path d="M18.1416 0.125098V0.305098C16.4797 0.585036 14.8731 1.1281 13.3822 1.91385C13.3285 1.94135 13.2754 1.97072 13.2222 1.99885C12.9039 2.17093 12.5926 2.35322 12.2885 2.54572C11.971 2.74489 11.6616 2.95572 11.3604 3.17822C11.2897 3.22947 11.2197 3.28197 11.1497 3.3351C10.8791 3.54135 10.616 3.75447 10.3597 3.97697C10.3141 4.0151 10.2691 4.05447 10.2241 4.09447C9.93785 4.3476 9.6616 4.61197 9.3941 4.88447L9.4841 4.94697C9.50368 4.9612 9.51814 4.98137 9.52535 5.00447H9.27535C8.8844 5.41209 8.51514 5.83997 8.1691 6.28635L8.06223 6.42635C8.0041 6.50322 7.9466 6.5801 7.88973 6.65822L7.77285 7.01885C7.76546 7.04171 7.75101 7.06165 7.73159 7.0758C7.71216 7.08994 7.68876 7.09758 7.66473 7.0976H7.5791C7.49535 7.2226 7.4141 7.34385 7.3341 7.46822L7.26535 7.5776L7.21098 7.66385C6.86974 8.21488 6.5623 8.78614 6.29035 9.37447C6.20473 9.5576 6.12348 9.74135 6.04598 9.92885C5.86556 10.3638 5.70389 10.8084 5.56098 11.2626C5.44431 11.6322 5.34014 12.0072 5.24848 12.3876C5.24473 12.4045 5.24035 12.422 5.2366 12.4382C5.2562 12.4451 5.27355 12.4572 5.28677 12.4732C5.29999 12.4892 5.30858 12.5085 5.31161 12.529C5.31463 12.5496 5.31198 12.5705 5.30394 12.5897C5.29589 12.6088 5.28277 12.6254 5.26598 12.6376L5.17785 12.7001C5.0248 13.408 4.92039 14.1255 4.86535 14.8476C4.85598 14.9688 4.84785 15.0895 4.8416 15.2113C4.8416 15.2538 4.83723 15.297 4.83535 15.3401C4.82967 15.3315 4.82545 15.322 4.82285 15.312C4.82285 15.3063 4.82285 15.3013 4.81973 15.2963C4.81939 15.2914 4.81939 15.2863 4.81973 15.2813V16.0813C4.81973 16.4951 4.83535 16.9053 4.8666 17.312H1.00098C0.969727 16.9057 0.954102 16.4955 0.954102 16.0813V15.2845C0.954164 15.3052 0.960007 15.3256 0.970977 15.3432C0.970977 15.3001 0.974727 15.257 0.977227 15.2145C0.983477 15.0926 0.991602 14.972 1.00098 14.8507C1.06361 14.0216 1.1913 13.1986 1.38285 12.3895C1.47202 12.0082 1.57618 11.6332 1.69535 11.2645C1.83827 10.8095 2.00077 10.3645 2.18285 9.92947C2.26035 9.74197 2.3416 9.55822 2.42723 9.37447C2.69917 8.78614 3.00661 8.21488 3.34785 7.66385C3.38848 7.60135 3.42973 7.53385 3.47285 7.46822C3.70098 7.1126 3.94285 6.7651 4.19785 6.42947C4.57284 5.93226 4.97643 5.45729 5.4066 5.00697C5.4216 4.99072 5.43723 4.9751 5.45285 4.95885C5.74452 4.65885 6.04556 4.37072 6.35598 4.09447C6.65473 3.83072 6.96327 3.5776 7.2816 3.3351C7.6491 3.05635 8.0316 2.79197 8.42035 2.54572C8.72494 2.35322 9.03618 2.17093 9.3541 1.99885C11.6058 0.780261 14.1185 0.123517 16.6785 0.0844727H17.2297C17.536 0.0888477 17.8397 0.103223 18.1416 0.125098Z" fill="#32314B"/>
<path d="M8.69305 2.54568C8.68734 2.56613 8.68734 2.58774 8.69305 2.60818L8.91242 3.28068C8.91915 3.30338 8.91862 3.32761 8.91092 3.34999C8.90322 3.37237 8.88873 3.3918 8.86947 3.40555C8.85021 3.41931 8.82714 3.42672 8.80347 3.42674C8.7798 3.42677 8.75671 3.4194 8.73742 3.40568L8.1643 2.99006C8.14492 2.97608 8.12163 2.96855 8.09773 2.96855C8.07384 2.96855 8.05055 2.97608 8.03117 2.99006L7.45805 3.40568C7.44252 3.41717 7.4243 3.42448 7.40514 3.42693C7.38598 3.42938 7.36652 3.42688 7.3486 3.41967C7.33068 3.41247 7.3149 3.40079 7.30277 3.38576C7.29064 3.37073 7.28256 3.35285 7.2793 3.33381C7.6468 3.05506 8.0293 2.79068 8.41805 2.54443C8.72263 2.35193 9.03388 2.16964 9.3518 1.99756C9.34463 2.02288 9.32896 2.04495 9.30742 2.06006L8.7343 2.47631C8.71266 2.49373 8.69802 2.51835 8.69305 2.54568Z" fill="#DBDBDB"/>
<path d="M8.16854 6.28896L8.06166 6.42896C8.00354 6.50583 7.94604 6.58271 7.88916 6.66083L7.99166 6.34833C7.99682 6.33076 8.00614 6.31468 8.01884 6.30148C8.03154 6.28828 8.04725 6.27834 8.06461 6.27252C8.08198 6.26669 8.1005 6.26514 8.11859 6.268C8.13668 6.27086 8.15382 6.27805 8.16854 6.28896Z" fill="#DBDBDB"/>
<path d="M5.2666 7.30316L5.03973 7.46754L4.69348 7.71754C4.67449 7.73153 4.66033 7.75107 4.65294 7.77347C4.64555 7.79586 4.6453 7.82 4.65223 7.84254L4.87285 8.51879C4.87918 8.54142 4.87838 8.56545 4.87056 8.58761C4.86275 8.60977 4.8483 8.62899 4.82918 8.64264C4.81006 8.6563 4.78719 8.66374 4.7637 8.66394C4.7402 8.66415 4.71721 8.65711 4.69785 8.64379L4.12535 8.22691C4.10588 8.21288 4.08248 8.20533 4.05848 8.20533C4.03447 8.20533 4.01108 8.21288 3.9916 8.22691L3.41848 8.64379C3.39912 8.65711 3.37613 8.66415 3.35264 8.66394C3.32914 8.66374 3.30627 8.6563 3.28715 8.64264C3.26803 8.62899 3.25358 8.60977 3.24577 8.58761C3.23795 8.56545 3.23715 8.54142 3.24348 8.51879L3.46285 7.84566C3.46951 7.82311 3.46912 7.79906 3.46175 7.77672C3.45438 7.75439 3.44038 7.73483 3.4216 7.72066L3.34535 7.66504C3.38598 7.60254 3.42723 7.53504 3.47035 7.46941C3.69848 7.11379 3.94035 6.76629 4.19535 6.43066L4.38535 7.01879C4.39275 7.04165 4.40719 7.06159 4.42662 7.07574C4.44604 7.08988 4.46945 7.09752 4.49348 7.09754H5.2041C5.22753 7.09882 5.25 7.10727 5.26846 7.12175C5.28692 7.13623 5.30048 7.15603 5.3073 7.17848C5.31413 7.20093 5.31388 7.22493 5.3066 7.24724C5.29932 7.26954 5.28536 7.28907 5.2666 7.30316Z" fill="#DBDBDB"/>
<path d="M5.26649 12.6397L5.17836 12.7022L4.69336 13.0553C4.67408 13.0691 4.65969 13.0886 4.65227 13.1111C4.64485 13.1336 4.64479 13.1578 4.65211 13.1803L4.87086 13.8535C4.87759 13.8762 4.87706 13.9004 4.86936 13.9228C4.86166 13.9451 4.84717 13.9646 4.82791 13.9783C4.80865 13.9921 4.78558 13.9995 4.76191 13.9995C4.73824 13.9995 4.71515 13.9922 4.69586 13.9785L4.12336 13.5622C4.10389 13.5482 4.08049 13.5406 4.05649 13.5406C4.03248 13.5406 4.00909 13.5482 3.98961 13.5622L3.41649 13.9785C3.3972 13.9922 3.37411 13.9995 3.35044 13.9995C3.32677 13.9995 3.3037 13.9921 3.28444 13.9783C3.26518 13.9646 3.25069 13.9451 3.24299 13.9228C3.23529 13.9004 3.23476 13.8762 3.24149 13.8535L3.46086 13.1803C3.46789 13.1578 3.46769 13.1336 3.46029 13.1112C3.45289 13.0888 3.43867 13.0693 3.41961 13.0553L2.84649 12.6385C2.82712 12.6243 2.81271 12.6044 2.80533 12.5816C2.79795 12.5588 2.79796 12.5342 2.80538 12.5114C2.8128 12.4886 2.82724 12.4687 2.84663 12.4546C2.86602 12.4405 2.88938 12.4329 2.91336 12.4328H3.62336C3.64076 12.4328 3.65792 12.4288 3.67352 12.4211C3.68912 12.4134 3.70275 12.4022 3.71336 12.3885C3.72111 12.378 3.72722 12.3664 3.73149 12.3541L3.95024 11.681C3.95769 11.6582 3.97216 11.6383 3.99158 11.6242C4.011 11.6101 4.03437 11.6025 4.05836 11.6025C4.08235 11.6025 4.10573 11.6101 4.12515 11.6242C4.14457 11.6383 4.15904 11.6582 4.16649 11.681L4.38524 12.3541C4.38951 12.3664 4.39562 12.378 4.40336 12.3885C4.41397 12.4022 4.4276 12.4134 4.4432 12.4211C4.45881 12.4288 4.47597 12.4328 4.49336 12.4328H5.20399C5.21674 12.4329 5.22941 12.435 5.24149 12.4391C5.26108 12.4463 5.27832 12.4588 5.29131 12.4751C5.30429 12.4915 5.31253 12.5111 5.31511 12.5318C5.31769 12.5525 5.31452 12.5735 5.30594 12.5926C5.29737 12.6116 5.28372 12.6279 5.26649 12.6397Z" fill="#DBDBDB"/>
<path d="M6.6747 5.0068C6.66751 5.02958 6.66751 5.05402 6.6747 5.0768L6.89157 5.74992C6.89814 5.77252 6.89754 5.79661 6.88985 5.81885C6.88215 5.8411 6.86775 5.86041 6.84862 5.87413C6.82949 5.88784 6.80657 5.89528 6.78303 5.89542C6.7595 5.89557 6.73649 5.8884 6.7172 5.87492L6.14407 5.45805C6.1246 5.44401 6.1012 5.43646 6.0772 5.43646C6.05319 5.43646 6.0298 5.44401 6.01032 5.45805L5.4372 5.87492C5.4179 5.8884 5.3949 5.89557 5.37136 5.89542C5.34782 5.89528 5.32491 5.88784 5.30578 5.87413C5.28665 5.86041 5.27224 5.8411 5.26455 5.81885C5.25685 5.79661 5.25625 5.77252 5.26282 5.74992L5.48157 5.0768C5.48876 5.05402 5.48876 5.02958 5.48157 5.0068C5.4774 4.98765 5.46786 4.97009 5.45407 4.95617C5.74574 4.65617 6.04678 4.36805 6.3572 4.0918L6.4072 4.24617C6.41421 4.26971 6.42866 4.29034 6.44837 4.30498C6.46809 4.31963 6.49201 4.3275 6.51657 4.32742H7.2247C7.24865 4.32768 7.27192 4.33545 7.29122 4.34965C7.31051 4.36384 7.32487 4.38373 7.33226 4.40651C7.33965 4.4293 7.33969 4.45383 7.33239 4.47664C7.32509 4.49946 7.31082 4.51941 7.29157 4.53367L6.71845 4.9493C6.69794 4.96313 6.68256 4.98334 6.6747 5.0068Z" fill="#DBDBDB"/>
<path d="M3.46725 9.92887C3.46566 9.94446 3.4607 9.95953 3.45272 9.97302C3.44473 9.98651 3.43391 9.9981 3.421 10.007L2.84787 10.4239C2.82896 10.4379 2.81485 10.4575 2.80746 10.4798C2.80008 10.5022 2.79978 10.5263 2.80662 10.5489L3.02537 11.2226C3.03236 11.2453 3.03204 11.2696 3.02447 11.2921C3.0169 11.3145 3.00245 11.3341 2.98317 11.3479C2.96389 11.3617 2.94076 11.3691 2.91704 11.3691C2.89332 11.369 2.87022 11.3615 2.851 11.3476L2.27787 10.932C2.25863 10.9174 2.23515 10.9095 2.211 10.9095C2.18685 10.9095 2.16336 10.9174 2.14412 10.932L1.69287 11.2601C1.83579 10.8051 1.99829 10.3601 2.18037 9.92512C2.25787 9.73762 2.33912 9.55387 2.42475 9.37012L2.53787 9.71949C2.54524 9.74242 2.55966 9.76244 2.57908 9.77669C2.59849 9.79095 2.62191 9.79871 2.646 9.79887H3.35412C3.37048 9.79879 3.38666 9.80224 3.40156 9.80898C3.41646 9.81573 3.42974 9.82561 3.44047 9.83794C3.45121 9.85028 3.45916 9.86479 3.46378 9.88048C3.4684 9.89618 3.46958 9.91268 3.46725 9.92887Z" fill="#DBDBDB"/>
<path d="M2.84807 15.7922C2.82901 15.8061 2.81479 15.8256 2.80739 15.848C2.79999 15.8705 2.79979 15.8946 2.80682 15.9172L3.02557 16.5915C3.03255 16.6142 3.03224 16.6385 3.02466 16.661C3.01709 16.6834 3.00264 16.703 2.98337 16.7168C2.96409 16.7306 2.94096 16.738 2.91724 16.738C2.89352 16.7379 2.87041 16.7304 2.85119 16.7165L2.27807 16.3009C2.25871 16.2866 2.23527 16.2789 2.21119 16.2789C2.18712 16.2789 2.16368 16.2866 2.14432 16.3009L1.57182 16.719C1.55261 16.7332 1.52941 16.7409 1.50556 16.7411C1.4817 16.7412 1.4584 16.7339 1.43899 16.72C1.41957 16.7061 1.40504 16.6865 1.39747 16.6638C1.38989 16.6412 1.38967 16.6168 1.39682 16.594L1.61557 15.9197C1.62279 15.8971 1.62268 15.8729 1.61527 15.8504C1.60786 15.828 1.59352 15.8085 1.57432 15.7947L1.00119 15.3753C0.989179 15.3667 0.978982 15.3559 0.971191 15.3434C0.971191 15.3003 0.974941 15.2572 0.977441 15.2147C0.987838 15.2005 1.00151 15.189 1.0173 15.1813C1.03308 15.1736 1.0505 15.1698 1.06807 15.1703H1.77619C1.80028 15.1701 1.8237 15.1624 1.84311 15.1481C1.86253 15.1339 1.87695 15.1138 1.88432 15.0909L1.96244 14.8509L2.10307 14.4178C2.11052 14.395 2.12499 14.3751 2.14441 14.361C2.16383 14.3469 2.1872 14.3394 2.21119 14.3394C2.23518 14.3394 2.25856 14.3469 2.27798 14.361C2.2974 14.3751 2.31187 14.395 2.31932 14.4178L2.45994 14.8509L2.53807 15.0909C2.54544 15.1138 2.55986 15.1339 2.57927 15.1481C2.59869 15.1624 2.62211 15.1701 2.64619 15.1703H3.35432C3.37833 15.1701 3.40178 15.1776 3.42128 15.1916C3.44077 15.2056 3.45529 15.2255 3.46274 15.2483C3.47019 15.2711 3.47018 15.2958 3.46271 15.3186C3.45524 15.3414 3.4407 15.3613 3.42119 15.3753L2.84807 15.7922Z" fill="#DBDBDB"/>
<path d="M4.82227 15.2844C4.82235 15.2592 4.83045 15.2346 4.84539 15.2144C4.84539 15.2569 4.84102 15.3 4.83914 15.3431C4.83346 15.3345 4.82924 15.325 4.82664 15.315C4.82664 15.3094 4.82664 15.3044 4.82352 15.2994C4.82276 15.2944 4.82235 15.2894 4.82227 15.2844Z" fill="white"/>
<path d="M6.187 9.05033L6.40575 9.72408C6.41338 9.74724 6.42825 9.76734 6.44816 9.7814C6.46808 9.79547 6.49199 9.80276 6.51637 9.80221H7.2245C7.24848 9.80225 7.27184 9.80987 7.29123 9.82398C7.31062 9.83809 7.32506 9.85797 7.33248 9.88078C7.33989 9.90359 7.33991 9.92815 7.33253 9.95097C7.32515 9.97379 7.31074 9.99369 7.29137 10.0078L6.71825 10.4241C6.69919 10.438 6.68497 10.4576 6.67757 10.48C6.67017 10.5024 6.66997 10.5265 6.677 10.5491L6.89137 11.2247C6.89836 11.2474 6.89804 11.2717 6.89047 11.2941C6.88289 11.3166 6.86845 11.3361 6.84917 11.35C6.82989 11.3638 6.80676 11.3712 6.78304 11.3712C6.75932 11.3711 6.73622 11.3636 6.717 11.3497L6.14387 10.9335C6.1244 10.9194 6.101 10.9119 6.077 10.9119C6.05299 10.9119 6.02959 10.9194 6.01012 10.9335L5.437 11.3497C5.41777 11.3636 5.39467 11.3711 5.37095 11.3712C5.34723 11.3712 5.3241 11.3638 5.30482 11.35C5.28554 11.3361 5.2711 11.3166 5.26352 11.2941C5.25595 11.2717 5.25564 11.2474 5.26262 11.2247L5.48137 10.551C5.4884 10.5284 5.48819 10.5043 5.4808 10.4818C5.4734 10.4594 5.45918 10.4399 5.44012 10.426L4.867 10.0097C4.84762 9.99557 4.83322 9.97567 4.82584 9.95285C4.81845 9.93003 4.81847 9.90546 4.82589 9.88265C4.83331 9.85985 4.84774 9.83997 4.86714 9.82586C4.88653 9.81174 4.90989 9.80412 4.93387 9.80408H5.64137C5.66532 9.8041 5.68867 9.79656 5.70809 9.78253C5.7275 9.76851 5.74199 9.74871 5.7495 9.72596L5.96825 9.05221C5.97483 9.02838 5.989 9.00734 6.0086 8.99229C6.02821 8.97723 6.05219 8.96897 6.07691 8.96875C6.10163 8.96854 6.12575 8.97639 6.14562 8.99111C6.16548 9.00583 6.18 9.02662 6.187 9.05033Z" fill="white"/>
<path d="M6.29282 9.37366C6.2072 9.55678 6.12595 9.74053 6.04845 9.92803C5.86636 10.3634 5.70386 10.8082 5.56095 11.2624L5.43907 11.3499C5.41985 11.3638 5.39675 11.3713 5.37303 11.3713C5.34931 11.3714 5.32618 11.364 5.3069 11.3502C5.28762 11.3363 5.27317 11.3168 5.2656 11.2943C5.25803 11.2719 5.25771 11.2476 5.2647 11.2249L5.48345 10.5512C5.49047 10.5286 5.49027 10.5045 5.48288 10.482C5.47548 10.4596 5.46126 10.4401 5.4422 10.4262L4.86907 10.0093C4.85616 10.0004 4.84534 9.9888 4.83735 9.97531C4.82936 9.96182 4.82441 9.94675 4.82282 9.93116C4.82125 9.91535 4.82301 9.8994 4.82798 9.88431C4.83295 9.86923 4.84102 9.85535 4.85168 9.84358C4.86233 9.8318 4.87534 9.82239 4.88985 9.81595C4.90436 9.8095 4.92007 9.80617 4.93595 9.80616H5.64157C5.66566 9.806 5.68908 9.79824 5.70849 9.78398C5.72791 9.76973 5.74233 9.74971 5.7497 9.72678L5.96845 9.05303C5.9759 9.03023 5.99037 9.01036 6.00979 8.99628C6.02921 8.98219 6.05258 8.97461 6.07657 8.97461C6.10056 8.97461 6.12394 8.98219 6.14336 8.99628C6.16278 9.01036 6.17725 9.03023 6.1847 9.05303L6.29282 9.37366Z" fill="#DBDBDB"/>
<path d="M8.20778 6.34502L8.42653 7.01877C8.43403 7.04152 8.44852 7.06132 8.46794 7.07535C8.48735 7.08938 8.5107 7.09692 8.53465 7.0969H9.24278C9.26676 7.09694 9.29012 7.10456 9.30951 7.11867C9.3289 7.13278 9.34334 7.15266 9.35076 7.17547C9.35818 7.19828 9.3582 7.22284 9.35081 7.24566C9.34343 7.26848 9.32902 7.28838 9.30965 7.30252L8.73653 7.71877C8.71762 7.73282 8.7035 7.75237 8.69612 7.77475C8.68874 7.79712 8.68844 7.82123 8.69528 7.84377L8.91465 8.51877C8.92138 8.54147 8.92085 8.5657 8.91315 8.58808C8.90545 8.61046 8.89096 8.62989 8.8717 8.64365C8.85244 8.6574 8.82937 8.66481 8.8057 8.66483C8.78203 8.66486 8.75894 8.65749 8.73965 8.64377L8.16653 8.22752C8.14715 8.21354 8.12386 8.20602 8.09997 8.20602C8.07607 8.20602 8.05278 8.21354 8.0334 8.22752L7.46028 8.64377C7.44099 8.65749 7.4179 8.66486 7.39423 8.66483C7.37056 8.66481 7.34749 8.6574 7.32823 8.64365C7.30897 8.62989 7.29448 8.61046 7.28678 8.58808C7.27908 8.5657 7.27856 8.54147 7.28528 8.51877L7.50403 7.84502C7.51115 7.8225 7.511 7.7983 7.50359 7.77586C7.49619 7.75342 7.48191 7.73389 7.46278 7.72002L6.89153 7.30252C6.87242 7.28862 6.85812 7.2691 6.85062 7.24669C6.84311 7.22428 6.84277 7.20009 6.84964 7.17748C6.85652 7.15487 6.87026 7.13496 6.88897 7.12052C6.90767 7.10608 6.93041 7.09782 6.95403 7.0969H7.66215C7.68655 7.09755 7.71051 7.0903 7.73045 7.07622C7.75039 7.06214 7.76524 7.04199 7.77278 7.01877L7.99153 6.34502C7.99898 6.32222 8.01345 6.30236 8.03287 6.28827C8.05229 6.27419 8.07566 6.2666 8.09965 6.2666C8.12364 6.2666 8.14702 6.27419 8.16644 6.28827C8.18586 6.30236 8.20033 6.32222 8.20778 6.34502Z" fill="white"/>
<path d="M6.95414 7.09717H7.57914C7.49539 7.22217 7.41414 7.34342 7.33414 7.46779L7.26539 7.57717L7.11414 7.46779L6.89164 7.30342C6.87265 7.28939 6.85846 7.26983 6.85103 7.24742C6.8436 7.225 6.84328 7.20084 6.85013 7.17824C6.85698 7.15565 6.87065 7.13572 6.88928 7.12121C6.9079 7.10669 6.93056 7.09829 6.95414 7.09717Z" fill="#DBDBDB"/>
<path d="M10.229 3.57557L10.4477 4.24932C10.4552 4.27212 10.4696 4.29198 10.4891 4.30602C10.5085 4.32006 10.5319 4.32756 10.5559 4.32745H11.2665C11.2901 4.32837 11.3128 4.33663 11.3315 4.35107C11.3503 4.36551 11.364 4.38542 11.3709 4.40803C11.3777 4.43064 11.3774 4.45483 11.3699 4.47724C11.3624 4.49965 11.3481 4.51916 11.329 4.53307L10.7559 4.94932C10.7367 4.96319 10.7225 4.98272 10.715 5.00516C10.7076 5.0276 10.7075 5.0518 10.7146 5.07432L10.9334 5.74807C10.9401 5.77077 10.9396 5.795 10.9319 5.81738C10.9242 5.83976 10.9097 5.85919 10.8904 5.87294C10.8712 5.8867 10.8481 5.89411 10.8244 5.89413C10.8007 5.89416 10.7777 5.88679 10.7584 5.87307L10.1859 5.45682C10.1664 5.44279 10.143 5.43523 10.119 5.43523C10.095 5.43523 10.0716 5.44279 10.0521 5.45682L9.47899 5.87307C9.4597 5.88679 9.43661 5.89416 9.41294 5.89413C9.38927 5.89411 9.3662 5.8867 9.34694 5.87294C9.32768 5.85919 9.31319 5.83976 9.30549 5.81738C9.29779 5.795 9.29726 5.77077 9.30399 5.74807L9.52336 5.07432C9.5302 5.05178 9.5299 5.02767 9.52252 5.00529C9.51514 4.98292 9.50103 4.96337 9.48211 4.94932L8.90899 4.53307C8.88962 4.51893 8.87521 4.49903 8.86783 4.47621C8.86045 4.45339 8.86046 4.42882 8.86788 4.40602C8.8753 4.38321 8.88974 4.36333 8.90913 4.34922C8.92852 4.33511 8.95188 4.32749 8.97586 4.32745H9.68399C9.70794 4.32747 9.73129 4.31993 9.7507 4.3059C9.77012 4.29187 9.78461 4.27207 9.79211 4.24932L10.0109 3.57557C10.0178 3.55206 10.0322 3.53142 10.0519 3.51674C10.0715 3.50207 10.0954 3.49414 10.1199 3.49414C10.1445 3.49414 10.1683 3.50207 10.188 3.51674C10.2076 3.53142 10.222 3.55206 10.229 3.57557Z" fill="white"/>
<path d="M10.3596 3.97709C10.314 4.01522 10.269 4.05459 10.224 4.09459C9.93771 4.34772 9.66146 4.61209 9.39396 4.88459L8.91083 4.53397C8.89119 4.51991 8.87654 4.49998 8.86899 4.47704C8.86143 4.4541 8.86138 4.42935 8.86883 4.40638C8.87628 4.38341 8.89084 4.36341 8.91042 4.34926C8.92999 4.33512 8.95356 4.32758 8.97771 4.32772H9.68583C9.70984 4.3276 9.7332 4.31993 9.75261 4.3058C9.77201 4.29166 9.78648 4.27178 9.79396 4.24897L10.0127 3.57647C10.0202 3.55367 10.0346 3.5338 10.054 3.51972C10.0735 3.50563 10.0968 3.49805 10.1208 3.49805C10.1448 3.49805 10.1682 3.50563 10.1876 3.51972C10.207 3.5338 10.2215 3.55367 10.229 3.57647L10.3596 3.97709Z" fill="#DBDBDB"/>
<path d="M12.2495 1.10649L12.4682 1.77961C12.4758 1.80289 12.4906 1.82312 12.5105 1.8373C12.5304 1.85149 12.5544 1.85887 12.5789 1.85836H13.287C13.311 1.8584 13.3343 1.86602 13.3537 1.88013C13.3731 1.89424 13.3876 1.91412 13.395 1.93693C13.4024 1.95974 13.4024 1.98431 13.395 2.00713C13.3876 2.02994 13.3732 2.04985 13.3539 2.06399L12.7807 2.48024C12.7617 2.49416 12.7475 2.5137 12.7401 2.53612C12.7327 2.55853 12.7325 2.5827 12.7395 2.60524L12.9539 3.28086C12.9609 3.30353 12.9605 3.32782 12.953 3.35029C12.9454 3.37277 12.9309 3.3923 12.9117 3.40612C12.8924 3.41994 12.8693 3.42735 12.8455 3.4273C12.8218 3.42726 12.7987 3.41976 12.7795 3.40586L12.2064 2.98961C12.1869 2.97558 12.1635 2.96802 12.1395 2.96802C12.1155 2.96802 12.0921 2.97558 12.0726 2.98961L11.4995 3.40586C11.4803 3.41976 11.4572 3.42726 11.4334 3.4273C11.4097 3.42735 11.3866 3.41994 11.3673 3.40612C11.348 3.3923 11.3336 3.37277 11.326 3.35029C11.3185 3.32782 11.3181 3.30353 11.3251 3.28086L11.5439 2.60711C11.5509 2.58458 11.5507 2.56041 11.5433 2.53799C11.5359 2.51558 11.5217 2.49604 11.5026 2.48211L10.9295 2.06586C10.9101 2.05172 10.8957 2.03182 10.8883 2.009C10.881 1.98618 10.881 1.96161 10.8884 1.93881C10.8958 1.916 10.9102 1.89612 10.9296 1.88201C10.949 1.8679 10.9724 1.86028 10.9964 1.86024H11.7039C11.7279 1.86021 11.7513 1.85258 11.7707 1.83843C11.7902 1.82429 11.8046 1.80435 11.812 1.78149L12.0307 1.10836C12.0373 1.08453 12.0515 1.0635 12.0711 1.04844C12.0907 1.03338 12.1147 1.02512 12.1394 1.02491C12.1641 1.02469 12.1883 1.03254 12.2081 1.04726C12.228 1.06198 12.2425 1.08277 12.2495 1.10649Z" fill="white"/>
<path d="M13.3822 1.91403C13.3284 1.94153 13.2753 1.9709 13.2222 1.99903C12.9038 2.17111 12.5926 2.3534 12.2884 2.5459C11.9709 2.74507 11.6615 2.9559 11.3603 3.1784L11.5478 2.60778C11.5535 2.58733 11.5535 2.56572 11.5478 2.54528C11.5416 2.51866 11.5261 2.49514 11.504 2.47903L10.9309 2.06278C10.9114 2.04877 10.8969 2.02891 10.8894 2.00608C10.8819 1.98326 10.8819 1.95865 10.8894 1.93582C10.8968 1.91298 10.9113 1.89311 10.9308 1.87908C10.9503 1.86505 10.9738 1.85759 10.9978 1.85778H11.704C11.728 1.85789 11.7514 1.85039 11.7708 1.83635C11.7903 1.82231 11.8047 1.80245 11.8122 1.77965L12.0309 1.10528C12.0384 1.08247 12.0528 1.06261 12.0723 1.04853C12.0917 1.03444 12.1151 1.02686 12.139 1.02686C12.163 1.02686 12.1864 1.03444 12.2058 1.04853C12.2252 1.06261 12.2397 1.08247 12.2472 1.10528L12.4659 1.77965C12.4735 1.80341 12.4886 1.82401 12.5091 1.83825C12.5296 1.85249 12.5541 1.85957 12.579 1.8584H13.2872C13.3065 1.85857 13.3254 1.8638 13.3421 1.87356C13.3587 1.88332 13.3726 1.89727 13.3822 1.91403Z" fill="#DBDBDB"/>
<path d="M31.0361 17.0931C31.598 17.0931 32.0536 16.6376 32.0536 16.0756C32.0536 15.5137 31.598 15.0581 31.0361 15.0581C30.4741 15.0581 30.0186 15.5137 30.0186 16.0756C30.0186 16.6376 30.4741 17.0931 31.0361 17.0931Z" fill="#E54141"/>
<path d="M28.9164 16.7962C29.3144 16.7962 29.6371 16.4736 29.6371 16.0756C29.6371 15.6776 29.3144 15.355 28.9164 15.355C28.5184 15.355 28.1958 15.6776 28.1958 16.0756C28.1958 16.4736 28.5184 16.7962 28.9164 16.7962Z" fill="#E54141"/>
</g>
<defs>
<clipPath id="clip0_5282_41451">
<rect width="32" height="32" fill="white" transform="translate(0.954102 0.081543)"/>
</clipPath>
</defs>
</svg>
