<svg xmlns="http://www.w3.org/2000/svg" width="48" height="48" fill="#e0cc1b" xmlns:v="https://vecta.io/nano"><path d="M44.32 40.784l-6.284-10.798c1.088-.332 2.246-.625 2.727-1.456.802-1.385-.625-3.656-.25-5.14.386-1.527 2.665-2.849 2.665-4.402 0-1.512-2.356-3.28-2.743-4.798-.377-1.483 1.046-3.757.241-5.14s-3.484-1.27-4.588-2.331c-1.135-1.093-1.131-3.766-2.5-4.498-1.375-.735-3.61.75-5.136.399C26.943 2.272 25.595 0 24.02 0c-1.6 0-4.144 2.577-4.543 2.67-1.525.355-3.762-1.127-5.136-.389-1.367.735-1.359 3.408-2.492 4.502-1.102 1.064-3.782.955-4.584 2.34s.626 3.655.251 5.14S4.78 17.258 4.78 18.98c0 1.553 2.286 2.87 2.674 4.397.378 1.484-1.046 3.757-.241 5.14.438.754 1.432 1.063 2.424 1.36.116.035.335.164.187.38L3.679 40.863c-.434.75-.081 1.394.785 1.43l4.24.177a3.38 3.38 0 0 1 2.414 1.4l2.262 3.589c.463.733 1.196.72 1.63-.03l6.333-10.932c.127-.148.255-.118.316-.066.693.59 1.658 1.178 2.464 1.178.79 0 1.522-.554 2.246-1.171.058-.05.202-.153.307.06C26.677 36.502 33 47.37 33 47.37c.436.749 1.17.762 1.63.028l2.256-3.595c.461-.733 1.547-1.365 2.413-1.403l4.239-.185c.866-.038 1.218-.682.782-1.43zm-13.295-9.83c-4.687 2.727-10.313 2.435-14.61-.276a14.1 14.1 0 0 1-4.584-18.91 14.1 14.1 0 0 1 18.913-5.31l.105.058.148.084a13.995 13.995 0 0 1 5.118 5.103 14.1 14.1 0 0 1-5.09 19.251zM29.953 8.575l-.058-.033c-3.563-2.062-8.103-2.213-11.908.001-5.647 3.285-7.568 10.552-4.283 16.199a11.774 11.774 0 0 0 3.96 4.085 11.54 11.54 0 0 0 .411.25c5.653 3.275 12.916 1.34 16.19-4.312s1.341-12.915-4.312-16.19zm1.415 9.24l-1.98 1.93c-.613.598-.996 1.777-.851 2.62l.467 2.725c.145.844-.357 1.208-1.114.81l-2.447-1.287c-.758-.398-1.998-.398-2.756 0L20.241 25.9c-.758.398-1.26.034-1.115-.81l.468-2.724c.144-.844-.239-2.023-.852-2.62l-1.979-1.93c-.613-.598-.421-1.187.426-1.31l2.735-.398c.847-.123 1.85-.852 2.23-1.62l1.222-2.478c.38-.768 1-.768 1.378 0l1.223 2.478c.38.768 1.383 1.497 2.23 1.62l2.735.397c.847.124 1.039.713.426 1.31z"/></svg>