<svg xmlns="http://www.w3.org/2000/svg" width="48" height="48" fill="none" xmlns:v="https://vecta.io/nano"><g clip-path="url(#A)" fill="#e0cc1b"><path d="M23.227 25.363l2.726-7.835c-3.026-4.043-5.677-10.073-5.677-16.125V0H1.14v48h45.722V26.584h-1.404c-4.524 0-9.465-1.538-13.682-4.196l-8.548 2.975zm-9.125-10.396A33.732 33.732 0 0 0 16.06 18.8l-2.413 1.433a36.556 36.556 0 0 1-2.12-4.153l2.576-1.113zm-3.618-1.59a36.397 36.397 0 0 1-1.216-4.505l2.751-.555c.284 1.404.661 2.802 1.122 4.157l-2.657.904zM8.545 1.604h2.806a34.11 34.11 0 0 0 .244 4.073l-2.787.335a37.056 37.056 0 0 1-.263-4.407zm1.106 31.125c1.28.658 2.464 1.49 3.52 2.475l-1.915 2.052a12.804 12.804 0 0 0-2.887-2.03l1.282-2.497zm3.264 6.41l2.277-1.64a15.544 15.544 0 0 1 2.009 3.805l-2.64.953a12.734 12.734 0 0 0-1.646-3.118zm2.308-16.474l2.292-1.62a34.028 34.028 0 0 0 2.704 3.353l-2.068 1.897a36.83 36.83 0 0 1-2.928-3.63zm17.843 13.451l.922-2.65c1.352.47 2.75.857 4.152 1.15l-.574 2.748a36.44 36.44 0 0 1-4.5-1.248zm12.012 2.021a37.01 37.01 0 0 1-4.654-.294l.354-2.783c1.416.18 2.862.27 4.3.27v2.807zm-17.404-7.638a33.758 33.758 0 0 0 3.823 1.986l-1.131 2.569a36.567 36.567 0 0 1-4.143-2.152l1.45-2.403zm-2.235-1.473l-1.636 2.28a36.838 36.838 0 0 1-3.61-2.955l1.912-2.054a34.007 34.007 0 0 0 3.334 2.73zm-22.897 1.99c1.448 0 2.881.2 4.261.591l-.765 2.7a12.801 12.801 0 0 0-3.495-.484v-2.806zm12.775 15.582c0-.64-.048-1.283-.142-1.911l2.776-.416a15.84 15.84 0 0 1 .172 2.327h-2.806zm30.092-40.42l.633-.634c.4-.4.621-.932.621-1.498a2.11 2.11 0 0 0-.62-1.499c-.4-.4-.933-.62-1.5-.62s-1.097.22-1.498.62l-.687.687 3.05 2.944zm-1.985 1.985l-3.05-2.944-10.99 10.99-1.6 4.597 4.596-1.6L43.424 8.163z"/></g><defs><clipPath id="A"><path fill="#fff" d="M0 0h48v48H0z"/></clipPath></defs></svg>