<svg xmlns="http://www.w3.org/2000/svg" width="164" height="59" fill="#ed1c24" fill-rule="evenodd" xmlns:v="https://vecta.io/nano"><path d="M71.791 10.009h3.45c1.257 0 1.89.626 1.89 2.038v5.004h6.757v-5.004c0-1.412.624-2.038 2.041-2.038h3.298v3.289h-1.408l-.161.161v14.084h-3.771v-7.042H77.13v7.042h-3.77V13.459s0-.161-.161-.161h-1.408v-3.289zm27.331-.313l.085.009v3.611l-.085-.019c-2.826 0-5.028 2.351-5.028 5.327 0 3.128 2.202 5.63 5.028 5.63l.085-.019v3.611l-.085.009c-5.028 0-9.11-4.066-9.11-9.231 0-5.014 4.083-8.928 9.11-8.928z"/><path d="M99.207 9.705l1.748.171c4.149.815 7.277 4.36 7.277 8.748 0 4.512-3.128 8.198-7.277 9.042l-1.748.18v-3.611l1.919-.417c1.852-.853 3.184-2.853 3.184-5.194 0-2.237-1.332-4.113-3.184-4.91l-1.919-.398V9.705zm9.81.304h5.264 2.514v3.289h-.237-2.202V16.9h1.068 1.371v3.128h-.804-1.635v3.914c0 .161 0 .161.161.161h1.125 1.153v3.441h-.331-3.988c-1.257 0-1.881-.625-1.881-2.038V13.298h-1.578v-3.289z"/><path d="M116.795 10.009h.075c3.459 0 5.5 1.877 5.5 4.701 0 1.716-.784 2.815-1.568 3.602 1.417.626 2.353 2.189 2.353 3.905 0 3.289-2.514 5.327-6.124 5.327h-.066-.17v-3.44h.387c1.257 0 2.051-.787 2.051-2.038s-.794-2.038-2.051-2.038h-.35-.037V16.9h.075c1.106 0 1.73-.787 1.73-1.877 0-1.1-.624-1.725-1.73-1.725h-.038-.037v-3.289zm13.589 0h1.588.293v5.014c-.151.313-.312.777-.312 1.251l-1.257 3.602h1.333.236v3.279h-.85-1.654l-1.106 2.824c-.312 1.09-.936 1.564-2.193 1.564H124.1v-3.44h.784c.322 0 .322 0 .473-.161l5.027-13.932z"/><path d="M132.265 10.009h1.89l5.028 13.933c.151.161.151.161.463.161h.633v3.441h-2.202c-1.257 0-1.88-.474-2.202-1.725l-1.096-2.663h-2.117-.397v-3.279h1.569l-1.248-3.602c0-.474-.16-.938-.321-1.251V10.01zM71.791 32.547h13.666c1.257 0 2.041.626 2.041 2.038V46.48c0 .152 0 .152.161.152h1.257v3.45h-3.298c-1.418 0-2.041-.626-2.041-2.038V35.997s0-.161-.161-.161h-6.285v14.245H73.36V35.836h-1.569v-3.289zm27.019-.313l.076.009v3.611l-.076-.019c-2.835 0-5.028 2.351-5.028 5.327 0 3.128 2.192 5.63 5.028 5.63l.076-.019v3.611l-.076.01c-5.028 0-8.959-4.075-8.959-9.232 0-5.014 3.932-8.928 8.959-8.928z"/><path d="M98.886 32.244l1.805.171c4.224.815 7.229 4.36 7.229 8.748 0 4.512-3.005 8.198-7.229 9.042l-1.805.18v-3.611l1.994-.417c1.88-.853 3.118-2.853 3.118-5.194 0-2.237-1.238-4.113-3.118-4.91l-1.994-.398v-3.611zm9.819.303h3.459c1.257 0 1.88.626 1.88 2.038V46.48c0 .152 0 .152.161.152h4.555V32.547h3.771v14.084h4.555c.161 0 .161 0 .161-.152V34.585c0-1.412.624-2.038 1.88-2.038h3.459v3.289h-1.417c-.161 0-.161.161-.161.161v12.046c0 1.412-.624 2.038-1.881 2.038h-16.812c-1.408 0-2.041-.626-2.041-2.038V35.997s0-.161-.152-.161h-1.417v-3.289zm26.858 0h11.785c1.418 0 1.89.626 1.89 1.877V37.4h-3.459v-1.403c0-.161 0-.161-.16-.161h-2.193v14.245h-3.78V35.836h-2.193c-.16 0-.16 0-.16.161V37.4h-3.459v-2.976c0-1.251.472-1.877 1.729-1.877zm18.542 0h1.588.293v5.014c-.161.313-.312.777-.312 1.251l-1.257 3.602h1.323.246v3.279h-.851-1.663l-1.096 2.663c-.312 1.251-.945 1.725-2.202 1.725h-2.353v-3.45h.784c.321 0 .321 0 .473-.152l5.027-13.933z"/><path d="M155.986 32.547h1.881l5.037 13.933c.151.152.151.152.472.152H164v3.45h-2.202c-1.257 0-1.881-.474-2.202-1.725l-1.096-2.663h-2.117-.397v-3.279h1.569l-1.257-3.602c0-.474-.151-.938-.312-1.251v-5.014zM47.579 17.468c.179-.057.416.057.652.37L58.91 28.32c.624.625.624 1.573 0 2.038L48.231 41.001c-.236.313-.473.389-.652.294s-.293-.37-.293-.768V18.15c0-.389.113-.626.293-.682zM29.311 0h.756l.728.303L41.786 11.26c.472.626.312 1.099-.473 1.099h-4.555a1.4 1.4 0 0 0-1.408 1.412v8.132c0 .787-.633 1.412-1.578 1.412h-8.005a1.41 1.41 0 0 1-1.418-1.412v-8.132c0-.787-.624-1.412-1.418-1.412h-4.867c-.784 0-.945-.474-.473-1.099l11-10.957.718-.303zM12.092 17.231c.198.095.321.37.321.768V40.84c0 .398-.123.635-.321.711-.189.076-.463 0-.784-.237L.468 30.358c-.624-.464-.624-1.412 0-2.038l10.84-10.795c.321-.313.595-.389.784-.294zM25.767 35.21h8.005c.945 0 1.578.626 1.578 1.412v8.606c0 .938.624 1.564 1.408 1.564h4.243c.784 0 1.096.464.473.938L30.795 58.526c-.321.313-.709.474-1.106.474-.387 0-.784-.161-1.096-.474L17.914 47.731c-.633-.474-.321-.938.463-.938h4.555c.794 0 1.418-.626 1.418-1.564v-8.606a1.41 1.41 0 0 1 1.418-1.412z"/></svg>