<svg width="50" height="50" viewBox="0 0 50 50" fill="none" xmlns="http://www.w3.org/2000/svg">
<g clip-path="url(#clip0_7904_622)">
<path d="M9.67781 18.5486C9.67781 16.7695 8.2311 15.3228 6.45205 15.3228C4.673 15.3228 3.2263 16.7695 3.2263 18.5486C3.2263 20.3276 4.673 21.7743 6.45205 21.7743C8.2311 21.7743 9.67781 20.3276 9.67781 18.5486ZM4.83918 18.5486C4.83918 17.6591 5.56253 16.9357 6.45205 16.9357C7.34158 16.9357 8.06493 17.6591 8.06493 18.5486C8.06493 19.4381 7.34158 20.1615 6.45205 20.1615C5.56253 20.1615 4.83918 19.4381 4.83918 18.5486ZM47.5804 0.000488281H25.0001C23.6664 0.000488281 22.5808 1.08611 22.5808 2.4198V13.9978C22.0705 13.817 21.5291 13.7099 20.9679 13.7099C19.5397 13.7099 18.2584 14.3356 17.3713 15.3228H12.0302C10.9127 13.3977 8.83357 12.0971 6.45126 12.0971C2.89396 12.0971 -0.000244141 14.9913 -0.000244141 18.5486C-0.000244141 21.1411 1.54097 23.3758 3.75198 24.4008L4.76003 33.9772C3.86972 34.2387 3.17156 34.9951 3.03532 35.9484L1.71974 45.161H1.61342C0.723897 45.161 0.000543397 45.8844 0.000543397 46.7739V48.3868C0.000543397 49.2763 0.723897 49.9997 1.61342 49.9997H17.7422C18.6317 49.9997 19.3551 49.2763 19.3551 48.3868V46.7739H45.1611C47.8297 46.7739 49.9997 44.6039 49.9997 41.9353C49.9997 39.2667 47.8297 37.0967 45.1611 37.0967H16.4833L16.3187 35.9476C16.1714 34.9152 15.3697 34.1048 14.3731 33.9146L11.8715 22.035C11.9262 21.9492 11.9786 21.8621 12.0294 21.7743H17.3705C18.2568 22.7615 19.5382 23.3872 20.9672 23.3872C21.5283 23.3872 22.0697 23.2801 22.58 23.0994V25.0001C22.58 26.3338 23.6657 27.4194 24.9994 27.4194H47.5796C48.9133 27.4194 49.999 26.3338 49.999 25.0001V2.4198C49.9997 1.08611 48.9141 0.000488281 47.5804 0.000488281ZM32.2581 1.61337H40.3225V6.452H32.2581V1.61337ZM24.1937 19.355V17.7421H35.4838L35.4854 19.355H24.1937ZM1.61342 18.5486C1.61342 15.88 3.78348 13.7099 6.45205 13.7099C9.12062 13.7099 11.2907 15.88 11.2907 18.5486C11.2907 21.2171 9.12062 23.3872 6.45205 23.3872C3.78348 23.3872 1.61342 21.2171 1.61342 18.5486ZM6.45205 25.0001C8.00193 25.0001 9.42619 24.45 10.5398 23.5349L12.7165 33.8709H6.37133L5.42786 24.9107C5.76256 24.9646 6.10278 25.0001 6.45205 25.0001ZM17.7438 48.3868H1.61342V46.7739H17.7422L17.7438 48.3868ZM20.1615 41.9353C20.1615 40.1562 21.6082 38.7095 23.3873 38.7095C25.1663 38.7095 26.613 40.1562 26.613 41.9353C26.613 43.7143 25.1663 45.161 23.3873 45.161C21.6082 45.161 20.1615 43.7143 20.1615 41.9353ZM37.0967 41.9353C37.0967 43.7143 35.65 45.161 33.871 45.161C32.0919 45.161 30.6452 43.7143 30.6452 41.9353C30.6452 40.1562 32.0919 38.7095 33.871 38.7095C35.65 38.7095 37.0967 40.1562 37.0967 41.9353ZM37.4677 38.7095H41.5652C40.795 39.5668 40.3225 40.6949 40.3225 41.9353C40.3225 43.1757 40.795 44.3038 41.5644 45.161H37.4677C38.2371 44.3038 38.7096 43.1757 38.7096 41.9353C38.7096 40.6949 38.2371 39.5668 37.4677 38.7095ZM30.2743 45.161H26.9839C27.7534 44.3038 28.2259 43.1757 28.2259 41.9353C28.2259 40.6949 27.7534 39.5668 26.9839 38.7095H30.2751C29.5049 39.5668 29.0323 40.6949 29.0323 41.9353C29.0323 43.1757 29.5049 44.3038 30.2743 45.161ZM48.3869 41.9353C48.3869 43.7143 46.9402 45.161 45.1611 45.161C43.3821 45.161 41.9354 43.7143 41.9354 41.9353C41.9354 40.1562 43.3821 38.7095 45.1611 38.7095C46.9402 38.7095 48.3869 40.1562 48.3869 41.9353ZM19.7906 38.7095C19.0212 39.5668 18.5486 40.6949 18.5486 41.9353C18.5486 43.1757 19.0212 44.3038 19.7906 45.161H17.6359L16.7141 38.7095H19.7906ZM16.0061 45.161H3.34955L3.5803 43.5482H13.71V41.9353H3.81104L4.63363 36.1756C4.68915 35.7815 5.03291 35.4838 5.43101 35.4838H13.9238C14.3219 35.4838 14.6657 35.7815 14.7212 36.1756L16.0061 45.161ZM12.6913 20.1615C12.8252 19.6444 12.9036 19.1065 12.9036 18.5486C12.9036 17.9906 12.8252 17.4527 12.6913 16.9357H16.4116C16.2325 17.4413 16.1293 17.9823 16.1293 18.5486C16.1293 19.1148 16.2325 19.6559 16.4116 20.1615H12.6913ZM17.7422 18.5486C17.7422 16.7695 19.1889 15.3228 20.9679 15.3228C21.8898 15.3228 22.7438 15.7197 23.3455 16.3769C22.888 16.6616 22.5808 17.1649 22.5808 17.7421V19.355C22.5808 19.9323 22.888 20.4355 23.3455 20.7202C22.7446 21.3774 21.8898 21.7743 20.9679 21.7743C19.1889 21.7743 17.7422 20.3276 17.7422 18.5486ZM48.3869 25.0001C48.3869 25.4454 48.0258 25.8065 47.5804 25.8065H25.0001C24.5552 25.8065 24.1937 25.4454 24.1937 25.0001V22.1527C24.5701 21.8165 24.8895 21.4148 25.1486 20.9679H35.4838C36.3734 20.9679 37.0967 20.2445 37.0967 19.355V17.7421C37.0967 16.8526 36.3734 16.1293 35.4838 16.1293H25.1486C24.8895 15.6815 24.5701 15.2819 24.1937 14.9448V2.4198C24.1937 1.97485 24.5552 1.61337 25.0001 1.61337H30.6452V8.06487H41.9354V1.61337H47.5804C48.0258 1.61337 48.3869 1.97485 48.3869 2.4198V25.0001ZM40.3225 22.5808H46.774V24.1936H40.3225V22.5808ZM40.3225 19.355H46.774V20.9679H40.3225V19.355ZM22.5808 41.1289H24.1937V42.7417H22.5808V41.1289ZM34.6774 42.7417H33.0645V41.1289H34.6774V42.7417ZM45.9675 42.7417H44.3547V41.1289H45.9675V42.7417Z" fill="url(#paint0_linear_7904_622)"/>
</g>
<defs>
<linearGradient id="paint0_linear_7904_622" x1="25.0002" y1="49.9997" x2="25.0002" y2="0.000500202" gradientUnits="userSpaceOnUse">
<stop stop-color="#2B96EA"/>
<stop offset="1" stop-color="#E0CC1B"/>
</linearGradient>
<clipPath id="clip0_7904_622">
<rect width="50" height="50" fill="white"/>
</clipPath>
</defs>
</svg>
