<svg xmlns="http://www.w3.org/2000/svg" width="40" height="40" fill="#e0cc1b" xmlns:v="https://vecta.io/nano"><path d="M2.5 21.226v15c0 1.38 1.123 2.5 2.5 2.5h12.5v-17.5h-15zm35-10h-7.91c.567-.388 1.055-.773 1.395-1.118a5.23 5.23 0 0 0 0-7.355c-1.96-1.975-5.375-1.97-7.332 0-1.085 1.088-3.96 5.515-3.562 8.472h-.18c.395-2.957-2.48-7.385-3.562-8.472-1.96-1.97-5.375-1.97-7.332 0C7 4.781 7 8.081 9.013 10.109c.343.345.83.73 1.398 1.118H2.5c-1.377 0-2.5 1.122-2.5 2.5v3.75a1.25 1.25 0 0 0 1.25 1.25H17.5v-5h5v5h16.25a1.25 1.25 0 0 0 1.25-1.25v-3.75c0-1.378-1.12-2.5-2.5-2.5zm-20.147-.083s-.105.083-.462.083c-1.728 0-5.025-1.795-6.103-2.88a2.73 2.73 0 0 1 0-3.83c.508-.51 1.18-.79 1.895-.79a2.65 2.65 0 0 1 1.893.79c1.685 1.695 3.36 6.025 2.778 6.627zm5.755.083c-.355 0-.46-.08-.46-.083-.582-.602 1.092-4.932 2.778-6.627a2.73 2.73 0 0 1 3.787 0c1.05 1.055 1.05 2.775 0 3.83-1.077 1.085-4.375 2.88-6.105 2.88zm-.608 10v17.5H35a2.5 2.5 0 0 0 2.5-2.5v-15h-15z"/></svg>