<svg width="50" height="50" viewBox="0 0 50 50" fill="none" xmlns="http://www.w3.org/2000/svg">
<path d="M49.8438 33.21C49.8438 33.209 49.8438 33.209 49.8438 33.21C49.3516 31.374 48.0166 29.7285 46.1807 28.6924C45.3203 28.207 44.3975 27.8809 43.4473 27.7178C44.1885 27.1016 44.8252 26.3574 45.3281 25.5078C46.4004 23.6934 46.7334 21.5996 46.2432 19.7637V19.7627C45.5898 17.335 43.084 15.8877 40.6553 16.5371C39.5791 16.8262 38.6641 17.4873 38.0488 18.4102L36.1553 11.3447C36.1016 11.1445 35.9707 10.9746 35.792 10.8711C35.6123 10.7676 35.3994 10.7402 35.1992 10.793L28.7939 12.5098C28.3779 12.6211 28.1309 13.0498 28.2422 13.4658L30.915 23.4424H0.78125C0.350586 23.4424 0.000976562 23.792 0.000976562 24.2227V47.4619C0.000976562 47.8936 0.350586 48.2422 0.78125 48.2422H31.9102C32.3408 48.2422 32.6904 47.8926 32.6904 47.4619V30.0732L37.4033 47.6641C37.4971 48.0127 37.8125 48.2432 38.1572 48.2432C38.2236 48.2432 38.292 48.2344 38.3594 48.2168L44.7646 46.501C44.9648 46.4473 45.1348 46.3164 45.2383 46.1377C45.3418 45.959 45.3701 45.7451 45.3164 45.5449L43.4238 38.4814C44.0576 38.7949 44.7422 38.9541 45.4346 38.9541C45.8291 38.9541 46.2256 38.9023 46.6162 38.7969C47.79 38.4834 48.7725 37.7275 49.3828 36.6699C49.9941 35.6113 50.1572 34.3828 49.8438 33.21ZM1.56152 25.0039H13.0967V46.6816H1.56152V25.0039ZM14.6582 46.6816V25.0039H18.0303V46.6816H14.6582ZM31.1289 46.6816H19.5918V25.0039H31.1299V46.6816H31.1289ZM33.4697 26.9453L38.3662 25.6328L39.1924 28.7148L39.2285 28.8477L39.2979 29.1045L40.0908 32.0635L35.1953 33.375L33.4697 26.9453ZM39.2393 19.4473C39.6416 18.75 40.2881 18.252 41.0586 18.0459C41.3174 17.9766 41.5771 17.9434 41.833 17.9434C43.1572 17.9434 44.374 18.8291 44.7344 20.168C45.4385 22.8037 43.874 26.3467 40.5244 27.6494L40.0244 25.7861L38.9365 21.7197C38.7295 20.9512 38.8369 20.1445 39.2393 19.4473ZM34.8486 12.5039L37.9629 24.126L33.0654 25.4385L29.9512 13.8164L34.8486 12.5039ZM38.71 46.5068L35.5967 34.8857L40.4941 33.5732L43.6074 45.1943L38.71 46.5068ZM48.0312 35.8887C47.6289 36.585 46.9834 37.082 46.2129 37.2881C45.4424 37.4951 44.6348 37.3877 43.9385 36.9854C43.2422 36.583 42.7441 35.9375 42.5391 35.166L41.8086 32.4424C41.8066 32.4336 41.8047 32.4238 41.8027 32.415L40.9512 29.2402C44.5029 28.6924 47.6279 30.9795 48.3359 33.6133C48.541 34.3838 48.4336 35.1924 48.0312 35.8887ZM9.86816 8.4375L12.5215 10.3564L11.502 13.4668C11.3086 14.0576 11.5176 14.7002 12.0166 15.0605C12.2686 15.2461 12.5645 15.3389 12.8604 15.3389C13.1553 15.3389 13.4492 15.2471 13.7002 15.0625L16.3447 13.1357L18.9873 15.0635C19.4912 15.4287 20.1641 15.4297 20.665 15.0645C21.1699 14.7012 21.3779 14.0605 21.1846 13.4668L20.168 10.3564L22.8145 8.44043C23.3213 8.07812 23.5322 7.43555 23.3379 6.84082C23.1455 6.25098 22.5996 5.85449 21.9795 5.85449L18.7051 5.8623L17.7002 2.74805C17.5117 2.15527 16.9658 1.75684 16.3418 1.75684C15.7236 1.75684 15.1777 2.15332 14.9844 2.74609L13.9785 5.8623L10.7051 5.85449C10.085 5.85449 9.53808 6.25098 9.3457 6.84082C9.15625 7.43164 9.36426 8.07324 9.86816 8.4375ZM14.0771 7.42285C14.6973 7.42285 15.2441 7.02637 15.4375 6.43359L16.3447 3.62305L17.2529 6.43652C17.4453 7.02637 17.9922 7.42383 18.6143 7.42383L21.5703 7.41602L19.1807 9.14648C18.6729 9.50879 18.4629 10.1533 18.6572 10.749L19.5752 13.5576L17.1875 11.8154C16.6826 11.4482 16.0059 11.4492 15.5078 11.8164L13.1182 13.5576L14.0381 10.749C14.2314 10.1562 14.0225 9.51367 13.5186 9.14941L11.1221 7.41602L14.0771 7.42285ZM25.333 15.3789C25.7646 15.3789 26.1133 15.7285 26.1133 16.1592C26.1133 16.5898 25.7637 16.9395 25.333 16.9395C22.9902 16.9395 21.084 18.8457 21.084 21.1885C21.084 21.6201 20.7344 21.9687 20.3037 21.9687C19.873 21.9687 19.5234 21.6191 19.5234 21.1885C19.5225 17.9853 22.1289 15.3789 25.333 15.3789ZM6.57812 16.1602C6.57812 15.7285 6.92773 15.3799 7.3584 15.3799C10.5625 15.3799 13.1689 17.9863 13.1689 21.1904C13.1689 21.6221 12.8193 21.9707 12.3887 21.9707C11.958 21.9707 11.6084 21.6211 11.6084 21.1904C11.6084 18.8477 9.70215 16.9414 7.35938 16.9414C6.92773 16.9404 6.57812 16.5908 6.57812 16.1602Z" fill="url(#paint0_linear_7904_615)"/>
<defs>
<linearGradient id="paint0_linear_7904_615" x1="25.0006" y1="48.2432" x2="25.0006" y2="1.75685" gradientUnits="userSpaceOnUse">
<stop stop-color="#2B96EA"/>
<stop offset="1" stop-color="#E0CC1B"/>
</linearGradient>
</defs>
</svg>
