<svg xmlns="http://www.w3.org/2000/svg" width="40" height="40" fill="#e0cc1b" xmlns:v="https://vecta.io/nano"><path d="M35.832 18.333c.46 0 .833-.373.833-.833V9.166c0-.46-.373-.833-.833-.833s-.833.373-.833.833v5V17.5c0 .46.373.833.833.833zM4.998 21.515v4.318c0 .46.373.833.833.833s.833-.373.833-.833v-4.32c.968-.345 1.667-1.262 1.667-2.347V7.5c0-1.378-1.122-2.5-2.5-2.5s-2.5 1.122-2.5 2.5v11.667c0 1.085.698 2.002 1.667 2.348z"/><path d="M37.498 28.333h-1.667c.46 0 .833-.373.833-.833s-.373-.833-.833-.833H34.64c-.573-1.153-1.308-4.325-1.308-5.833 0-.587.278-1.283.6-2.088.475-1.192 1.067-2.675 1.067-4.578 0-3.297-2.42-5.378-5-5.755V5.833c0-.46-.373-.833-.833-.833s-.833.373-.833.833v2.535l-7.138.765-8.695.867c-.457 0-.913-.07-1.435-.222a.83.83 0 0 0-.732.135c-.21.158-.333.405-.333.667v5.853c0 .263.123.51.335.667s.482.203.735.132c1.135-.335 2.533-.513 4.043-.513 3.98 0 7.788 1.185 9.26 2.883.527.608.735 1.245.635 1.945-.148 1.042-.728 3.568-2.8 5.118h-1.373c-.46 0-.833.373-.833.833s.373.833.833.833H2.5c-1.378.002-2.5 1.122-2.5 2.502V32.5C0 33.877 1.122 35 2.5 35h35c1.378 0 2.5-1.122 2.5-2.5v-1.667c-.002-1.378-1.123-2.5-2.502-2.5z"/></svg>