<svg width="50" height="50" viewBox="0 0 50 50" fill="none" xmlns="http://www.w3.org/2000/svg">
<g clip-path="url(#clip0_7904_636)">
<path d="M42.4611 20.6436C41.6301 20.4805 40.5607 20.9238 40.0529 22.6572L38.3488 28.4785C37.9152 28.5234 37.4523 28.7227 37.008 29.1377C36.5041 29.6074 35.9982 30.0615 35.508 30.501C32.3078 33.3711 29.2844 36.082 29.1994 41.4639V41.4766V43.3066C29.1994 43.3164 29.2004 43.3262 29.2014 43.3359C29.2014 43.3457 29.1994 43.3555 29.1994 43.3652V44.5664H28.9475C28.2941 44.5664 27.7629 45.0977 27.7629 45.751V48.8154C27.7629 49.4688 28.2941 50 28.9475 50H37.1437C37.7971 50 38.3283 49.4688 38.3283 48.8154V45.751C38.3283 45.0977 37.7971 44.5664 37.1437 44.5664H36.9211L36.9299 43.8906C36.9377 43.4551 37.0939 43.0957 37.4064 42.7939L40.4299 39.8955C41.881 38.502 42.6887 36.8506 42.8967 34.8447L44.0871 23.2236C44.217 21.9795 43.5012 20.8477 42.4611 20.6436ZM36.7687 48.4375H29.3254V46.126H36.7687V48.4375ZM42.5363 23.0625L41.3459 34.6826C41.1769 36.3047 40.5246 37.6406 39.3508 38.7676L36.3264 41.668C35.716 42.2568 35.385 43.0166 35.3703 43.8662L35.3615 44.5654H30.7619V43.3643C30.7619 43.3545 30.7609 43.3447 30.76 43.335C30.76 43.3252 30.7619 43.3154 30.7619 43.3057V41.4824C30.8381 36.7861 33.3596 34.5254 36.551 31.6631C37.0461 31.2188 37.5588 30.7598 38.0734 30.2793C38.2443 30.1191 38.467 29.9912 38.635 30.0459C38.6379 30.0469 38.6408 30.0488 38.6447 30.0498C38.7307 30.082 38.7697 30.165 38.7883 30.2305C38.8342 30.3906 38.8 30.5918 38.7004 30.7988C38.6623 30.8594 38.6154 30.9209 38.5598 30.9834L34.4133 35.5508C34.1232 35.8701 34.1476 36.3633 34.466 36.6533C34.7853 36.9434 35.2785 36.9189 35.5685 36.6006L39.5226 32.2451C39.6096 32.1953 39.6887 32.1289 39.7541 32.0449C39.8703 31.8945 39.9699 31.7393 40.0539 31.5811C40.6457 30.6084 40.4279 29.584 39.8293 28.9941C39.8283 28.9932 39.8264 28.9922 39.8254 28.9902L41.55 23.0957C41.7463 22.4258 42.0285 22.1494 42.1594 22.1758C42.3205 22.207 42.59 22.5391 42.5363 23.0625ZM21.051 44.5654H20.799V41.4766C20.799 41.4727 20.799 41.4688 20.799 41.4639C20.7141 36.083 17.6935 33.373 14.4953 30.5029C14.0051 30.0625 13.4982 29.6084 12.9933 29.1367C12.548 28.7217 12.0842 28.5234 11.6506 28.4785L9.94647 22.6572C9.43866 20.9248 8.3703 20.4814 7.53827 20.6436C6.49726 20.8477 5.78241 21.9795 5.90936 23.2217L7.10272 34.8428C7.3078 36.8486 8.11542 38.501 9.56952 39.8936L12.5881 42.791C12.9025 43.0947 13.0588 43.4541 13.0666 43.8867L13.0754 44.5654H12.8527C12.1994 44.5654 11.6682 45.0967 11.6682 45.75V48.8144C11.6682 49.4678 12.1994 49.999 12.8527 49.999H21.049C21.7023 49.999 22.2336 49.4678 22.2336 48.8144V45.75C22.2365 45.0967 21.7043 44.5654 21.051 44.5654ZM14.6291 43.8623C14.6144 43.0146 14.2844 42.2559 13.6721 41.665L10.6516 38.7666C9.47577 37.6396 8.82343 36.3047 8.65741 34.6826L7.46405 23.0615C7.41034 22.5381 7.67987 22.2061 7.84003 22.1748C7.97089 22.1484 8.25311 22.4248 8.4494 23.0947L10.174 28.9893C10.173 28.9902 10.1711 28.9922 10.1691 28.9932C9.52948 29.623 9.32538 30.749 10.0783 31.7783C10.0822 31.7842 10.0861 31.79 10.091 31.7949C10.1144 31.8262 10.1379 31.8564 10.1623 31.8877C10.1701 31.8975 10.1789 31.9082 10.1867 31.9189C10.218 31.957 10.2502 31.9941 10.2834 32.0312L14.4299 36.5986C14.7199 36.918 15.2131 36.9414 15.5324 36.6514C15.8517 36.3613 15.8752 35.8682 15.5851 35.5488L11.4387 30.9824C11.4357 30.9795 11.4328 30.9756 11.4308 30.9727C11.4103 30.9502 11.3918 30.9277 11.3742 30.9043C11.3635 30.8906 11.3527 30.877 11.343 30.8633C11.3351 30.8525 11.3273 30.8418 11.3205 30.8311C11.1955 30.6465 11.1496 30.4717 11.1642 30.332C11.1662 30.3164 11.1682 30.3018 11.1711 30.2861C11.1721 30.2803 11.173 30.2754 11.175 30.2695C11.1818 30.2441 11.1896 30.2197 11.2004 30.1982C11.2004 30.1982 11.2004 30.1982 11.2004 30.1973C11.2346 30.126 11.2892 30.0723 11.3537 30.0479C11.3557 30.0469 11.3566 30.0469 11.3586 30.0459C11.5285 29.9863 11.7551 30.1152 11.9279 30.2773C12.4435 30.7578 12.9562 31.2188 13.4523 31.6631C16.6418 34.5244 19.1613 36.7852 19.2375 41.4805V44.5635H14.6379L14.6291 43.8623ZM20.675 48.4375H13.2316V46.126H20.675V48.4375ZM31.59 47.3252C31.59 47.7568 31.2404 48.1055 30.8098 48.1055H30.7326C30.301 48.1055 29.9523 47.7559 29.9523 47.3252C29.9523 46.8945 30.3019 46.5449 30.7326 46.5449H30.8098C31.2404 46.5449 31.59 46.8936 31.59 47.3252ZM20.049 47.3252C20.049 47.7568 19.6994 48.1055 19.2687 48.1055H19.1916C18.76 48.1055 18.4113 47.7559 18.4113 47.3252C18.4113 46.8945 18.7609 46.5449 19.1916 46.5449H19.2687C19.6994 46.5449 20.049 46.8936 20.049 47.3252ZM28.6828 28.2227C28.8019 28.6572 29.1682 28.9668 29.6164 29.0107C29.6525 29.0146 29.6887 29.0156 29.7248 29.0156C30.131 29.0156 30.5002 28.79 30.6848 28.4199L31.6994 26.3896L33.5959 27.6406C33.9738 27.8896 34.4543 27.8779 34.8205 27.6123C35.1857 27.3467 35.3449 26.8936 35.2267 26.4629L33.1184 18.5889L33.9777 18.3896C34.466 18.2773 34.8742 17.9795 35.1281 17.5508C35.382 17.1221 35.4465 16.6201 35.3088 16.1367L34.8156 14.4033C34.7883 14.3076 34.8107 14.2275 34.8859 14.1572L36.1203 13.0029C36.4816 12.665 36.6906 12.1885 36.6945 11.6943C36.6984 11.2031 36.4992 10.7256 36.1467 10.3857L34.8566 9.13477C34.7814 9.06152 34.7609 8.98144 34.7912 8.88183L35.2844 7.26465C35.4299 6.78613 35.3752 6.28418 35.132 5.85156C34.8879 5.41797 34.4865 5.11035 33.9963 4.98535L32.2521 4.54883C32.1545 4.52441 32.0959 4.46387 32.0734 4.36523L31.6916 2.71875C31.5803 2.23633 31.2726 1.81543 30.8478 1.56543C30.424 1.31543 29.9084 1.25098 29.4367 1.38672L27.7072 1.87695C27.6066 1.90527 27.5295 1.88477 27.4572 1.80762L26.3058 0.574219C25.9719 0.21582 25.4992 0.00683594 25.009 0.000976562C25.0021 0.000976562 24.9953 0.000976562 24.9885 0.000976562C24.5021 0.000976562 24.0305 0.200195 23.6906 0.548828L22.4318 1.8418C22.3625 1.91406 22.2834 1.93359 22.1867 1.9043L20.5695 1.41113C20.0891 1.26465 19.5851 1.32031 19.1506 1.56543C18.717 1.81055 18.4113 2.21289 18.2902 2.69727L17.8498 4.44141C17.8244 4.54102 17.7668 4.59863 17.6662 4.62207L16.0197 5.00391C15.5314 5.11621 15.1232 5.41406 14.8703 5.84277C14.6164 6.27148 14.5519 6.77344 14.6887 7.25684L15.1818 8.99023C15.2092 9.08594 15.1867 9.16602 15.1115 9.23633L13.8771 10.3906C13.5158 10.7285 13.3068 11.2051 13.3029 11.6982C13.299 12.1895 13.4982 12.667 13.8508 13.0068L15.1408 14.2578C15.216 14.3311 15.2365 14.4111 15.2062 14.5107L14.7131 16.1279C14.5676 16.6055 14.6223 17.1064 14.8654 17.5391C15.1096 17.9736 15.5109 18.2813 16.0012 18.4072L16.8732 18.626L14.7736 26.457C14.6545 26.8926 14.8137 27.3457 15.1789 27.6113C15.5451 27.877 16.0266 27.8887 16.4045 27.6396L18.3 26.3896L19.3146 28.4199C19.4992 28.79 19.8683 29.0156 20.2746 29.0156C20.3107 29.0156 20.3469 29.0137 20.383 29.0107C20.8312 28.9668 21.1975 28.6572 21.3185 28.2178L22.9709 22.0459L23.6935 22.8193C24.0275 23.1787 24.5012 23.3887 24.9924 23.3945H25.0129C25.4992 23.3945 25.9709 23.1953 26.3107 22.8467L27.0422 22.0947L28.6828 28.2227ZM32.1086 24.79C31.8527 24.6191 31.5363 24.5664 31.2394 24.6436C30.9416 24.7217 30.6906 24.9238 30.548 25.2031L29.8596 26.5801L28.5578 21.7178L29.4269 21.9824C29.9064 22.1309 30.4094 22.0771 30.8439 21.832C31.2736 21.5908 31.5891 21.1758 31.7092 20.6963L31.883 20.0078L33.3898 25.6338L32.1086 24.79ZM20.1408 26.5811L19.4504 25.1992C19.3107 24.9248 19.0598 24.7227 18.7619 24.6445C18.465 24.5674 18.1486 24.6201 17.8957 24.7881L16.6115 25.6348L18.1379 19.9424L18.3068 20.6768C18.4191 21.165 18.718 21.5742 19.1476 21.8281C19.5773 22.082 20.0793 22.1475 20.5627 22.0098L21.4308 21.7627L20.1408 26.5811ZM25.1926 21.7588C25.1271 21.8262 25.05 21.835 25.0109 21.835C24.9631 21.834 24.8947 21.8203 24.8361 21.7568L23.6848 20.5254C23.3986 20.2158 23.0344 20.0264 22.6418 19.9668C22.6389 19.9658 22.635 19.9658 22.632 19.9648C22.548 19.9521 22.4631 19.9443 22.3762 19.9443C22.2082 19.9443 22.0363 19.9678 21.8654 20.0166L20.1369 20.5088C20.051 20.5332 19.9836 20.5088 19.9426 20.4854C19.9016 20.4609 19.8478 20.4141 19.8283 20.3271L19.4474 18.6738C19.2873 18.0039 18.7951 17.5029 18.1281 17.334L16.3859 16.8975C16.2932 16.873 16.2463 16.8125 16.2267 16.7773C16.2033 16.7363 16.1818 16.6689 16.2072 16.585L16.6994 14.9697C16.9016 14.3115 16.7277 13.6289 16.2307 13.1426L14.9367 11.8877C14.8762 11.8291 14.8635 11.7607 14.8644 11.7129C14.8644 11.6729 14.8752 11.5957 14.9435 11.5322L16.1779 10.3789C16.6838 9.90723 16.8732 9.22851 16.6838 8.56445L16.1916 6.83301C16.1672 6.74707 16.1906 6.67969 16.215 6.63965C16.2385 6.59961 16.2853 6.54687 16.3732 6.52734L18.0187 6.14551C18.6926 5.99023 19.1955 5.49707 19.3644 4.8252L19.8049 3.08008C19.8264 2.99414 19.8801 2.94922 19.9201 2.92578C19.9621 2.90234 20.0295 2.87988 20.1154 2.90625L21.7346 3.39941C22.3976 3.59961 23.0793 3.42188 23.5549 2.92773L24.8088 1.6377C24.8742 1.57031 24.9553 1.5625 24.9904 1.56152C25.0383 1.5625 25.1066 1.57617 25.1642 1.6377L25.1662 1.63965L26.3205 2.87402C26.7922 3.37891 27.4709 3.56836 28.1359 3.38086L29.8693 2.88965C29.9543 2.86523 30.0197 2.88867 30.0607 2.91211C30.1017 2.93652 30.1545 2.9834 30.175 3.07129L30.5568 4.71777C30.7121 5.39063 31.2043 5.89258 31.8752 6.0625L33.6174 6.49902C33.7062 6.52148 33.7521 6.57617 33.7756 6.61719C33.799 6.6582 33.8205 6.72559 33.7951 6.81055L33.3029 8.42578C33.1008 9.08398 33.2746 9.7666 33.7717 10.2529L35.0656 11.5078C35.1262 11.5664 35.1389 11.6348 35.1379 11.6826C35.1379 11.7227 35.1271 11.7998 35.0588 11.8633L33.8244 13.0166C33.3185 13.4883 33.1291 14.167 33.3185 14.8311L33.8107 16.5635C33.8351 16.6494 33.8117 16.7158 33.7873 16.7568C33.7639 16.7969 33.717 16.8496 33.6291 16.8691L31.9836 17.251C31.9777 17.252 31.9709 17.2549 31.965 17.2559C31.9621 17.2568 31.9592 17.2568 31.9572 17.2578C31.9543 17.2588 31.9523 17.2598 31.9494 17.2598C31.2932 17.4238 30.8039 17.9111 30.6379 18.5703L30.1975 20.3154C30.176 20.4023 30.1213 20.4482 30.0803 20.4717C30.0392 20.4941 29.9738 20.5166 29.8869 20.4893L28.2678 19.9961C27.6037 19.7959 26.9221 19.9736 26.4475 20.4678L25.1926 21.7588ZM31.3351 11.6982C31.3351 8.2041 28.4943 5.36133 25.0012 5.36133C21.507 5.36133 18.6642 8.2041 18.6642 11.6982C18.6642 15.1924 21.507 18.0342 25.0012 18.0342C28.4943 18.0342 31.3351 15.1924 31.3351 11.6982ZM25.0012 16.4736C22.3683 16.4736 20.2258 14.3311 20.2258 11.6982C20.2258 9.06543 22.3683 6.92285 25.0012 6.92285C27.633 6.92285 29.7736 9.06543 29.7736 11.6982C29.7736 14.3311 27.633 16.4736 25.0012 16.4736ZM28.5734 10.5449L25.1662 13.9551C25.0197 14.1016 24.8215 14.1836 24.6144 14.1836C24.4074 14.1836 24.2092 14.1016 24.0627 13.9551L21.4269 11.3193C21.1223 11.0146 21.1223 10.5205 21.4269 10.2158C21.7316 9.91113 22.2258 9.91113 22.5305 10.2158L24.6135 12.2988L27.4689 9.44043C27.7736 9.13574 28.2678 9.13477 28.5724 9.44043C28.8781 9.74512 28.8791 10.2402 28.5734 10.5449Z" fill="url(#paint0_linear_7904_636)"/>
</g>
<defs>
<linearGradient id="paint0_linear_7904_636" x1="24.9989" y1="50" x2="24.9989" y2="0.000988483" gradientUnits="userSpaceOnUse">
<stop stop-color="#2B96EA"/>
<stop offset="1" stop-color="#E0CC1B"/>
</linearGradient>
<clipPath id="clip0_7904_636">
<rect width="50" height="50" fill="white"/>
</clipPath>
</defs>
</svg>
