<svg xmlns="http://www.w3.org/2000/svg" width="40" height="40" fill="#e0cc1b" xmlns:v="https://vecta.io/nano"><path d="M36.933 33.987l-5.236-8.999c.906-.276 1.871-.52 2.272-1.213.668-1.154-.521-3.046-.209-4.283.322-1.273 2.221-2.374 2.221-3.668 0-1.261-1.964-2.733-2.286-3.998-.314-1.237.872-3.131.201-4.284S30.992 6.484 30.073 5.6c-.946-.91-.943-3.138-2.084-3.748s-3.007.625-4.279.332C22.453 1.893 21.329 0 20.016 0c-1.333 0-3.453 2.148-3.785 2.225-1.271.296-3.136-.939-4.28-.324s-1.133 2.84-2.077 3.752c-.918.886-3.151.796-3.82 1.95s.521 3.046.209 4.283-2.279 2.497-2.279 3.932c0 1.294 1.904 2.392 2.228 3.664.315 1.236-.871 3.131-.201 4.284.365.628 1.193.885 2.02 1.133.097.029.279.137.155.317l-5.121 8.837c-.362.625-.068 1.161.654 1.192l3.533.147c.722.03 1.627.555 2.012 1.166l1.885 2.991c.385.611.997.6 1.359-.026l5.277-9.109c.106-.124.212-.098.263-.055.577.491 1.382.982 2.053.982.659 0 1.268-.461 1.871-.976.049-.042.169-.127.256.05.001.003 5.27 9.06 5.27 9.06.363.624.975.635 1.359.023l1.88-2.995c.384-.611 1.289-1.138 2.01-1.169l3.533-.154c.721-.032 1.015-.568.651-1.193zm-11.079-8.192c-3.906 2.272-8.595 2.029-12.176-.23a11.75 11.75 0 0 1-3.82-15.759A11.75 11.75 0 0 1 25.62 5.382l.087.049.123.069a11.66 11.66 0 0 1 4.266 4.253 11.75 11.75 0 0 1-4.242 16.043zm-.893-18.649l-.049-.027c-2.969-1.718-6.752-1.844-9.923.001-4.706 2.738-6.307 8.793-3.569 13.499a9.81 9.81 0 0 0 3.301 3.405 10.17 10.17 0 0 0 .342.208c4.711 2.729 10.763 1.117 13.492-3.594s1.117-10.763-3.594-13.492zm1.179 7.701l-1.649 1.608c-.511.498-.83 1.481-.71 2.184l.389 2.27c.121.703-.297 1.007-.929.675l-2.039-1.072c-.631-.332-1.665-.332-2.296 0l-2.039 1.072c-.631.332-1.049.028-.929-.675l.389-2.27c.121-.703-.199-1.686-.71-2.184l-1.649-1.608c-.511-.498-.351-.989.355-1.092l2.279-.331c.706-.103 1.542-.71 1.858-1.35l1.019-2.065c.316-.64.832-.64 1.148 0l1.02 2.065c.316.64 1.152 1.247 1.858 1.35l2.279.331c.706.103.866.594.355 1.092z"/></svg>