<svg width="24" height="24" fill="none" xmlns="http://www.w3.org/2000/svg"><path fill-rule="evenodd" clip-rule="evenodd" d="m16.875 15.455 4 4.005a.501.501 0 0 1-.02.691l-.7.7a.5.5 0 0 1-.71 0l-4-4.004a2.612 2.612 0 0 1-.3-.36l-.75-1.001a6.995 6.995 0 0 1-4.37 1.531A7.011 7.011 0 0 1 6.973 3.69a6.995 6.995 0 0 1 8.518 1.971 7.015 7.015 0 0 1-.046 8.753l1 .691c.156.1.3.218.43.35zM5.025 10.01a5.003 5.003 0 0 0 5 5.006 4.997 4.997 0 0 0 3.535-1.466 5.009 5.009 0 0 0-3.535-8.546c-2.761 0-5 2.241-5 5.006z" fill="#2B96EA"/></svg>