<svg width="25" height="25" viewBox="0 0 25 25" fill="none" xmlns="http://www.w3.org/2000/svg">
<path d="M5.9541 22.0815H19.9541C21.0571 22.0815 21.9541 21.1845 21.9541 20.0815V9.08154C21.9541 8.81633 21.8487 8.56197 21.6612 8.37444C21.4737 8.1869 21.2193 8.08154 20.9541 8.08154H17.9541V7.08154C17.9541 4.32454 15.7111 2.08154 12.9541 2.08154C10.1971 2.08154 7.9541 4.32454 7.9541 7.08154V8.08154H4.9541C4.68889 8.08154 4.43453 8.1869 4.24699 8.37444C4.05946 8.56197 3.9541 8.81633 3.9541 9.08154V20.0815C3.9541 21.1845 4.8511 22.0815 5.9541 22.0815ZM9.9541 7.08154C9.9541 5.42754 11.3001 4.08154 12.9541 4.08154C14.6081 4.08154 15.9541 5.42754 15.9541 7.08154V8.08154H9.9541V7.08154ZM5.9541 10.0815H7.9541V12.0815H9.9541V10.0815H15.9541V12.0815H17.9541V10.0815H19.9541L19.9561 20.0815H5.9541V10.0815Z" fill="#2B96EA"/>
</svg>
