<svg xmlns="http://www.w3.org/2000/svg" viewBox="0 0 31 31" fill="#2B96EA" xmlns:v="https://vecta.io/nano"><path d="M1.488.186C.769.186.186.769.186 1.488S.769 2.79 1.488 2.79h2.317c.19 0 .374.06.528.171s.269.267.329.447l4.294 12.884c.191.572.215 1.188.069 1.773l-.354 1.417a3.37 3.37 0 0 0 3.236 4.146h15.628c.719 0 1.302-.583 1.302-1.302s-.583-1.302-1.302-1.302H11.907a.7.7 0 0 1-.71-.908l.267-1.065c.045-.18.149-.341.296-.455s.327-.177.513-.177h13.959a1.3 1.3 0 0 0 1.236-.89l3.472-10.419c.281-.844-.347-1.715-1.236-1.714H8.722c-.19 0-.374-.06-.528-.171s-.269-.267-.329-.447L6.632 1.076C6.454.544 5.956.185 5.395.186H1.488zm9.116 24.744C9.166 24.93 8 26.096 8 27.535s1.166 2.605 2.605 2.605 2.605-1.166 2.605-2.605-1.166-2.605-2.605-2.605zm15.628 0c-1.439 0-2.605 1.166-2.605 2.605s1.166 2.605 2.605 2.605 2.605-1.166 2.605-2.605-1.166-2.605-2.605-2.605z"/></svg>