<svg xmlns="http://www.w3.org/2000/svg" viewBox="0 0 41 40" fill="#E0CC1B" xmlns:v="https://vecta.io/nano"><path d="M12.3 24.789l3.483-1.513-.977.98c-.313.313-.489.738-.489 1.178v6.52c0 1.493 1.804 2.217 2.844 1.177l3.497-3.497 7.62 3.81c.986.493 2.179-.091 2.384-1.193l4.348-23.907c.229-1.286-1.038-2.326-2.248-1.851L4.51 17.551a1.67 1.67 0 0 0-.289 2.957l6.518 4.159c.466.298 1.055.344 1.56.122zm18.898-14.1l-3.415 18.784-6.709-3.352c-.649-.324-1.422-.189-1.922.313l-1.502 1.502v-1.806l6.681-6.68c1.295-1.295-.162-3.432-1.842-2.706l-10.702 4.643-3.008-1.92 22.419-8.777z"/></svg>