<svg xmlns="http://www.w3.org/2000/svg" viewBox="0 0 41 40" fill="#E0CC1B" xmlns:v="https://vecta.io/nano"><path d="M32.702 9.27l-.738-.43c-.694-.459-1.331-1-1.896-1.611-1.414-1.618-1.942-3.259-2.137-4.409h.008c-.163-.954-.095-1.571-.085-1.571h-6.441v24.905l-.014.991c0 .041-.004.078-.006.122 0 .018 0 .037-.004.055a5.47 5.47 0 0 1-2.752 4.355c-.812.462-1.73.704-2.665.703-3.001 0-5.433-2.447-5.433-5.469s2.432-5.469 5.433-5.469c.568 0 1.133.089 1.673.265l.008-6.558c-1.64-.212-3.305-.082-4.892.383a11.96 11.96 0 0 0-4.327 2.314 12.64 12.64 0 0 0-2.758 3.401c-.272.469-1.298 2.352-1.422 5.409-.078 1.735.443 3.533.691 4.276v.016a12.59 12.59 0 0 0 1.748 3.189 13.09 13.09 0 0 0 2.79 2.632v-.016l.016.016c3.118 2.119 6.575 1.98 6.575 1.98.599-.024 2.603 0 4.88-1.079 2.525-1.196 3.963-2.978 3.963-2.978a12.38 12.38 0 0 0 2.159-3.588c.583-1.532.777-3.37.777-4.104V13.788l1.119.735s1.499.961 3.838 1.587c1.678.445 3.939.539 3.939.539v-6.394c-.792.086-2.401-.164-4.048-.985z"/></svg>