<svg xmlns="http://www.w3.org/2000/svg" viewBox="0 0 41 41" fill="#E0CC1B" xmlns:v="https://vecta.io/nano"><path d="M19.123.833h.88l1.689.046c2.894.061 5.798.467 8.547 1.396 1.272.43 2.501.99 3.625 1.728a8.94 8.94 0 0 1 2.187 2.028c1.153 1.496 1.861 3.286 2.307 5.11a23.6 23.6 0 0 1 .542 3.089l.093.908v5.899l-.295 3.004c-.237 1.95-.776 3.866-1.737 5.588-1.345 2.409-3.559 4.13-6.176 4.999l-1.548.443-.875.245-2.321.447a39.7 39.7 0 0 1-8.346.358l-.766-.049c-.011-.001-.02.003-.027.012l-2.354 2.667-1.397 1.503c-.257.252-.532.445-.823.579h-1.133c-.7-.308-.914-1.181-.914-1.871v-4.088c0-.011-.005-.018-.015-.021-2.546-.731-4.747-2.096-6.318-4.254-2.044-2.806-2.693-6.392-2.811-9.783l-.028-.761V18.03l.039-1.417c.121-4.04.869-8.328 3.74-11.403a5.76 5.76 0 0 1 .493-.47c1.043-.886 2.244-1.564 3.507-2.081C12.115 1.343 15.665.917 19.123.833zm-7.646 31.389c.013.01.014.014.014.019l-.052 5.964.005.927c.002.154.038.404.19.489.182.102.501-.093.629-.222a19.94 19.94 0 0 0 .663-.702c1.615-1.796 3.167-3.651 4.711-5.508.007-.008.016-.012.027-.012a37.21 37.21 0 0 0 8.1-.439c.649-.107 1.314-.226 1.949-.401.432-.119.919-.219 1.296-.313 2.111-.524 3.912-1.688 5.137-3.486 1.034-1.517 1.574-3.359 1.802-5.199.343-2.769.451-5.549.173-8.299-.145-1.427-.411-2.844-.859-4.209-.561-1.71-1.538-3.558-3.096-4.563-1.345-.868-2.948-1.444-4.499-1.824-2.04-.5-4.146-.736-6.244-.779l-1.097-.033c-1.646-.058-3.364.04-5.154.294-1.12.159-2.222.401-3.306.726-1.522.457-3.016 1.139-4.245 2.164a4.79 4.79 0 0 0-.457.434c-1.586 1.713-2.39 3.918-2.756 6.196-.147.916-.242 1.782-.285 2.596-.059 1.132-.085 2.363-.077 3.694.016 2.789.33 5.779 1.752 8.247 1.255 2.178 3.275 3.586 5.679 4.239zM19.903 8.04c2.784.012 5.363.976 7.358 2.933a9.66 9.66 0 0 1 2.603 4.457c.32 1.187.467 2.355.442 3.502-.014.645-1.003.649-1.004-.024-.005-2.308-.565-4.633-2.051-6.45-1.3-1.589-3.074-2.707-5.084-3.153-.731-.162-1.471-.246-2.219-.252-.158-.001-.271-.015-.338-.042-.408-.16-.417-.791.026-.943.057-.02.146-.029.269-.029zm-4.787 9.342c.97 3.015 3.213 5.503 6.319 6.383a.95.95 0 0 0 .303.042c.286-.01.6-.093.823-.28a1.99 1.99 0 0 0 .245-.277l.647-.831c.323-.415.923-.579 1.42-.513a1.91 1.91 0 0 1 .685.232c1.179.661 2.161 1.422 3.292 2.347l.475.415c.409.465.395 1.103.128 1.655-.156.321-.388.666-.697 1.033-.337.401-.747.803-1.148 1.104-.338.255-.715.435-1.129.54a1.45 1.45 0 0 1-.408.046c-.475-.016-.931-.161-1.371-.332-1.165-.452-2.292-1.031-3.393-1.618-1.612-.859-3.135-1.9-4.525-3.069-.565-.476-1.091-1.042-1.618-1.587-.581-.6-1.119-1.236-1.614-1.909-1.29-1.751-2.371-3.7-3.269-5.64-.275-.595-.57-1.319-.7-1.994a2.03 2.03 0 0 1 .087-1.105 2.87 2.87 0 0 1 .492-.854 8.44 8.44 0 0 1 1.855-1.646c.204-.134.382-.225.534-.274.568-.182 1.145-.057 1.539.416l1.711 2.228.72 1.108c.158.243.26.427.306.551.2.539.128 1.19-.23 1.657-.066.086-.172.186-.319.3l-.833.649c-.269.211-.38.685-.374 1.021.001.073.024.13.046.198zm11.195-1.906c-.612-1.681-1.871-2.877-3.577-3.464a7.65 7.65 0 0 0-1.88-.375c-.119-.01-.205-.027-.258-.051-.521-.238-.308-1.011.268-.965a10.04 10.04 0 0 1 1.452.224c3.344.771 5.43 3.527 5.363 6.937-.003.13-.021.23-.055.301-.189.396-.764.368-.922-.04-.025-.064-.036-.158-.035-.283.008-.774-.089-1.552-.356-2.285zm-4.693-2.114c1.047.06 2.069.455 2.701 1.31.462.624.67 1.431.721 2.207.009.137 0 .242-.025.314a.51.51 0 0 1-.938.028c-.021-.05-.037-.135-.045-.255-.032-.424-.103-.828-.265-1.223-.395-.963-1.258-1.3-2.23-1.373-.118-.009-.206-.027-.264-.055-.396-.187-.383-.769.033-.924.075-.028.179-.038.312-.03z"/></svg>