<svg xmlns="http://www.w3.org/2000/svg" width="96" height="96" style="shape-rendering:geometricPrecision;text-rendering:geometricPrecision;image-rendering:optimizeQuality;fill-rule:evenodd;clip-rule:evenodd"><path style="opacity:.972" fill="#2c7bbc" d="M41.5-.5h12c22.76 4.093 36.76 17.426 42 40v11a169.875 169.875 0 0 1-26-1c8.453-17.493 4.786-31.66-11-42.5a53.946 53.946 0 0 0-21-2c-7.763 2.926-12.43 8.426-14 16.5-.166 6.675 0 13.342.5 20 3.464 3.684 3.297 7.017-.5 10h-24v-12c5.368-22.358 19.368-35.691 42-40Z"/><path style="opacity:1" fill="#629ac6" d="M95.5 50.5v1h-29c9.954-16.254 7.62-30.42-7-42.5-6.913-1.975-13.913-2.975-21-3-6.576 3.74-11.576 8.907-15 15.5 1.57-8.074 6.237-13.574 14-16.5a53.946 53.946 0 0 1 21 2c15.786 10.84 19.453 25.007 11 42.5a169.875 169.875 0 0 0 26 1Z"/><path style="opacity:1" fill="#e0e6ea" d="M66.5 51.5c-.978.311-1.644.978-2 2a74.381 74.381 0 0 1 6.5 8A101.037 101.037 0 0 0 74.5 83c.113 1.7-.553 2.866-2 3.5a594.442 594.442 0 0 1-3.5-26c-1.777-2.29-3.944-3.957-6.5-5l8.5-17C72.553 25.105 67.386 15.272 55.5 9c-19.613-4.565-29.946 3.268-31 23.5 1.004 6.005 2.004 12.005 3 18-3.409 2.742-6.409 5.742-9 9-1.29.558-2.123 1.558-2.5 3a148.224 148.224 0 0 0-1.5 20c-.667 0-1-.333-1-1a80.885 80.885 0 0 1 1.5-20c1.978-4.138 4.811-7.471 8.5-10 3.797-2.983 3.964-6.316.5-10-.5-6.658-.666-13.325-.5-20 3.424-6.593 8.424-11.76 15-15.5 7.087.025 14.087 1.025 21 3 14.62 12.08 16.954 26.246 7 42.5Z"/><path style="opacity:1" fill="#5c2889" d="M41.5 22.5a11.741 11.741 0 0 0-3 5c.172.992-.162 1.658-1 2-4.115 7.352-2.448 13.352 5 18l3 4c1.074 1.385 2.407 2.551 4 3.5-3.363-.007-6.363-1.173-9-3.5l-1 2a42.641 42.641 0 0 1-8-3.5c-1.333-1.667-1.333-3.333 0-5-3.172-3.181-4.506-7.014-4-11.5-.165-3.35.002-6.683.5-10 .608-1.566 1.442-2.9 2.5-4 .553 2.157 1.553 1.99 3-.5 1.259-.982 2.592-1.315 4-1-6.376 6.449-8.21 13.949-5.5 22.5.05-7.826 3.217-13.826 9.5-18Z"/><path style="opacity:1" fill="#d7d0da" d="M43.5 25.5c2.321.183 4.654.516 7 1-7.424 3.183-9.59 8.516-6.5 16 3.84 7.113 9.34 8.78 16.5 5l-1 2c-4.436 2.598-9.103 3.264-14 2l-3-4-4.5-9a40.936 40.936 0 0 1-.5-9c.838-.342 1.172-1.008 1-2 1.32-1.442 2.986-2.108 5-2Z"/><path style="opacity:1" fill="#282e51" d="M62.5 55.5c-.934-1.068-1.268-2.401-1-4a5.728 5.728 0 0 1 1-3c5.694-5.732 7.36-12.399 5-20 .24-2.398-.426-4.398-2-6-.93-3.929-3.264-6.595-7-8-.558-1.29-1.558-2.123-3-2.5-5.796-1.492-11.463-1.659-17-.5-3.667 1.667-6.333 4.333-8 8-1.058 1.1-1.892 2.434-2.5 4a50.441 50.441 0 0 0-.5 10 163.11 163.11 0 0 1 0 17c-.996-5.995-1.996-11.995-3-18C25.554 12.268 35.887 4.435 55.5 9 67.386 15.272 72.553 25.105 71 38.5l-8.5 17Z"/><path style="opacity:1" fill="#5f5982" d="M37.5 29.5a40.936 40.936 0 0 0 .5 9l4.5 9c-7.448-4.648-9.115-10.648-5-18Z"/><path style="opacity:1" fill="#b06bac" d="M67.5 28.5c2.36 7.601.694 14.268-5 20-.342-.838-1.008-1.172-2-1 .333-1 1-1.667 2-2 2.889-2.99 4.222-6.658 4-11 .961-1.765 1.295-3.765 1-6Z"/><path style="opacity:1" fill="#1e2028" d="M59.5 26.5c4.624 3.888 6.124 8.888 4.5 15-.278.916-.778 1.583-1.5 2v2c-1 .333-1.667 1-2 2-7.16 3.78-12.66 2.113-16.5-5-3.09-7.484-.924-12.817 6.5-16 2.965-1.233 5.965-1.233 9 0Z"/><path style="opacity:1" fill="#5e5f6b" d="M61.5 31.5c.667 0 1 .333 1 1-2.667 3.333-2.667 6.667 0 10v1l-2 1c-1.548-1.876-2.381-3.876-2.5-6l-1.5 1c.928 1.268 1.095 2.601.5 4-.667 1.333-1.333 1.333-2 0 .019-1.608.185-3.274.5-5h-3c.315 1.726.481 3.392.5 5-1.544 1.321-2.711.988-3.5-1 1.171-3.982 1.171-7.982 0-12h3v6h3c-.73-2.099-.73-4.099 0-6 2.19 1.248 2.523 2.914 1 5 .825.886 1.825 1.219 3 1a6.845 6.845 0 0 0-1-4c.825-.886 1.825-1.219 3-1Z"/><path style="opacity:1" fill="#e2e1e4" d="M61.5 31.5c-1.175-.219-2.175.114-3 1a6.845 6.845 0 0 1 1 4c-1.175.219-2.175-.114-3-1 1.523-2.086 1.19-3.752-1-5-.73 1.901-.73 3.901 0 6h-3v-6h-3c1.171 4.018 1.171 8.018 0 12 .789 1.988 1.956 2.321 3.5 1a29.816 29.816 0 0 0-.5-5h3a29.816 29.816 0 0 0-.5 5c.667 1.333 1.333 1.333 2 0 .595-1.399.428-2.732-.5-4l1.5-1c.119 2.124.952 4.124 2.5 6-5.145 4.475-9.645 3.808-13.5-2-3.361-9.959.139-14.792 10.5-14.5 1.824.66 3.157 1.827 4 3.5Z"/><path style="opacity:1" fill="#e1e1e3" d="M62.5 32.5c1.248 3.3 1.248 6.633 0 10-2.667-3.333-2.667-6.667 0-10Z"/><path style="opacity:1" fill="#d8d2dd" d="M62.5 25.5h1c1.853 2.708 2.853 5.708 3 9 .222 4.342-1.111 8.01-4 11v-2c.722-.417 1.222-1.084 1.5-2 1.624-6.112.124-11.112-4.5-15 .709-.904 1.709-1.237 3-1Z"/><path style="opacity:1" fill="#97939f" d="M62.5 25.5c-1.291-.237-2.291.096-3 1-3.035-1.233-6.035-1.233-9 0a56.587 56.587 0 0 0-7-1c6.347-2.506 12.68-2.506 19 0Z"/><path style="opacity:1" fill="#5d2a84" d="M58.5 18.5a36.582 36.582 0 0 1 7 4c1.574 1.602 2.24 3.602 2 6 .295 2.235-.039 4.235-1 6-.147-3.292-1.147-6.292-3-9 .11-.617.444-1.117 1-1.5a32.856 32.856 0 0 1-6-5.5Z"/><path style="opacity:1" fill="#090918" d="M53.5 16.5c1.784.392 3.45 1.06 5 2a32.856 32.856 0 0 0 6 5.5c-.556.383-.89.883-1 1.5h-1c-6.32-2.506-12.653-2.506-19 0-2.014-.108-3.68.558-5 2a11.741 11.741 0 0 1 3-5c3.787-2.56 7.787-4.56 12-6Z"/><path style="opacity:1" fill="#cea9c4" d="M38.5 11.5c5.537-1.159 11.204-.992 17 .5 1.442.377 2.442 1.21 3 2.5-3.178-1.962-6.51-2.295-10-1-3.07-1.68-6.404-2.347-10-2Z"/><path style="opacity:1" fill="#be6db2" d="M38.5 11.5c3.596-.347 6.93.32 10 2 3.49-1.295 6.822-.962 10 1 3.736 1.405 6.07 4.071 7 8a36.582 36.582 0 0 0-7-4 16.328 16.328 0 0 0-5-2c-5.476-.596-9.476 1.404-12 6-6.283 4.174-9.45 10.174-9.5 18-2.71-8.551-.876-16.051 5.5-22.5-1.408-.315-2.741.018-4 1-1.447 2.49-2.447 2.657-3 .5 1.667-3.667 4.333-6.333 8-8Z"/><path style="opacity:1" fill="#5a2783" d="M53.5 16.5c-4.213 1.44-8.213 3.44-12 6 2.524-4.596 6.524-6.596 12-6Z"/><path style="opacity:.983" fill="#fedb51" d="M-.5 51.5h18c-2.393 2.236-4.227 4.903-5.5 8-.5 6.658-.666 13.325-.5 20-2.866-2.046-5.033-4.713-6.5-8-2.363-4.934-4.196-9.934-5.5-15v-5Z"/><path style="opacity:1" fill="#fedf69" d="M17.5 51.5h6c-3.689 2.529-6.522 5.862-8.5 10a80.885 80.885 0 0 0-1.5 20c-1-.333-1.667-1-2-2-.166-6.675 0-13.342.5-20 1.273-3.097 3.107-5.764 5.5-8Z"/><path style="opacity:1" fill="#6b338c" d="M60.5 47.5c.992-.172 1.658.162 2 1a5.728 5.728 0 0 0-1 3c-2.412 1.953-5.08 3.12-8 3.5 2.496-1.331 4.496-3.164 6-5.5l1-2Z"/><path style="opacity:.991" fill="#fddb55" d="M66.5 51.5h29v5c-5.273 20.272-17.94 33.272-38 39h-5l3-2c1.599.268 2.932-.066 4-1 1.291.237 2.291-.096 3-1h1a35.67 35.67 0 0 0 7-4l2-1c1.447-.634 2.113-1.8 2-3.5A101.037 101.037 0 0 1 71 61.5a74.381 74.381 0 0 0-6.5-8c.356-1.022 1.022-1.689 2-2Z"/><path style="opacity:1" fill="#682d92" d="M57.5 55.5c-.813 3.651-2.98 5.984-6.5 7a81.089 81.089 0 0 1-13.5-6c-.17.897-.502 1.897-1 3-2.016-1.206-4.016-1.206-6 0 2.045 1.551 3.545 3.551 4.5 6a61.204 61.204 0 0 0 3 18l1-2c2.794 4.634 6.627 7.967 11.5 10-4.201 1.236-8.535 1.236-13 0-5.022-5.417-6.355-11.75-4-19 .201-5.63-2.466-8.464-8-8.5 1.507.837 2.007 2.004 1.5 3.5-1.011-.837-2.178-1.17-3.5-1-.166 5.011 0 10.011.5 15 .383.556.883.89 1.5 1l-3 2v3h3v3a24.768 24.768 0 0 1-8-5 109.108 109.108 0 0 1 1.5-23 15.276 15.276 0 0 1 4.5-1.5 4.452 4.452 0 0 1-2-1.5 84.714 84.714 0 0 0 8-7.5A415.7 415.7 0 0 0 51 57.5c2.41.018 4.577-.65 6.5-2Z"/><path style="opacity:1" fill="#c26eb3" d="M57.5 55.5c3.888 1.225 6.888 3.559 9 7a60.94 60.94 0 0 0 .5 11c.383.556.883.89 1.5 1a38.495 38.495 0 0 1 2 13 35.67 35.67 0 0 1-7 4c-.863-3.662.47-5.828 4-6.5-2.667-1-2.667-2 0-3-1.867-.711-3.367-.211-4.5 1.5a8.434 8.434 0 0 1-.5-4c1.677-4.045 2.344-8.378 2-13-.275-2.342-1.108-2.342-2.5 0l-1 18c-.067 2.547-.9 4.714-2.5 6.5a8.434 8.434 0 0 0 4 .5c-.709.904-1.709 1.237-3 1a29.22 29.22 0 0 0-9-1c-4.873-2.033-8.706-5.366-11.5-10l-1 2a61.204 61.204 0 0 1-3-18c-.955-2.449-2.455-4.449-4.5-6 1.984-1.206 3.984-1.206 6 0 .498-1.103.83-2.103 1-3a81.089 81.089 0 0 0 13.5 6c3.52-1.016 5.687-3.349 6.5-7Z"/><path style="opacity:1" fill="#1f1f41" d="M27.5 33.5c-.506 4.486.828 8.319 4 11.5-1.333 1.667-1.333 3.333 0 5a42.641 42.641 0 0 0 8 3.5l1-2c2.637 2.327 5.637 3.493 9 3.5-1.593-.949-2.926-2.115-4-3.5 4.897 1.264 9.564.598 14-2-1.504 2.336-3.504 4.169-6 5.5 2.92-.38 5.588-1.547 8-3.5-.268 1.599.066 2.932 1 4 2.556 1.043 4.723 2.71 6.5 5 .98 8.72 2.146 17.387 3.5 26l-2 1a38.495 38.495 0 0 0-2-13 165.94 165.94 0 0 0-2-12c-2.112-3.441-5.112-5.775-9-7-1.923 1.35-4.09 2.018-6.5 2A415.7 415.7 0 0 1 29.5 52a84.714 84.714 0 0 1-8 7.5 4.452 4.452 0 0 0 2 1.5 15.276 15.276 0 0 0-4.5 1.5 109.108 109.108 0 0 0-1.5 23 6.541 6.541 0 0 1-3-3 2965.072 2965.072 0 0 1 4-23c2.591-3.258 5.591-6.258 9-9a163.11 163.11 0 0 0 0-17Z"/><path style="opacity:1" fill="#968099" d="M66.5 62.5a165.94 165.94 0 0 1 2 12c-.617-.11-1.117-.444-1.5-1a60.94 60.94 0 0 1-.5-11Z"/><path style="opacity:1" fill="#c16eb2" d="M33.5 72.5c-1.612 3.244-2.612 6.911-3 11a9.106 9.106 0 0 0-5-1c-.617-.11-1.117-.444-1.5-1-.5-4.989-.666-9.989-.5-15 1.322-.17 2.489.163 3.5 1 .507-1.496.007-2.663-1.5-3.5 5.534.036 8.201 2.87 8 8.5Z"/><path style="opacity:1" fill="#723398" d="M64.5 66.5c.344 4.622-.323 8.955-2 13a72.444 72.444 0 0 1 .5-12c.383-.556.883-.89 1.5-1Z"/><path style="opacity:1" fill="#444c71" d="M18.5 59.5a2965.072 2965.072 0 0 0-4 23c.048-6.697.548-13.364 1.5-20 .377-1.442 1.21-2.442 2.5-3Z"/><path style="opacity:1" fill="#341b49" d="M64.5 66.5c-.617.11-1.117.444-1.5 1a72.444 72.444 0 0 0-.5 12 8.434 8.434 0 0 0 .5 4c1.133-1.711 2.633-2.211 4.5-1.5-2.667 1-2.667 2 0 3-3.53.672-4.863 2.838-4 6.5h-1a8.434 8.434 0 0 1-4-.5c1.6-1.786 2.433-3.953 2.5-6.5l1-18c1.392-2.342 2.225-2.342 2.5 0Z"/><path style="opacity:1" fill="#40234c" d="M33.5 72.5c-2.355 7.25-1.022 13.583 4 19-2.386-.873-4.386-2.373-6-4.5-5.333-.667-5.333-1.333 0-2a40.936 40.936 0 0 0-9-.5l3-2a9.106 9.106 0 0 1 5 1c.388-4.089 1.388-7.756 3-11Z"/><path style="opacity:.873" fill="#c06fb2" d="M22.5 84.5a40.936 40.936 0 0 1 9 .5c-5.333.667-5.333 1.333 0 2 1.614 2.127 3.614 3.627 6 4.5a12.066 12.066 0 0 1 3 4h-3c-4.297-.879-8.297-2.546-12-5v-3h-3v-3Z"/><path style="opacity:1" fill="#5c3862" d="M37.5 91.5c4.465 1.236 8.799 1.236 13 0a29.22 29.22 0 0 1 9 1c-1.068.934-2.401 1.268-4 1-4.794-.597-9.127.07-13 2h-2a12.066 12.066 0 0 0-3-4Z"/><path style="opacity:.914" fill="#d185b6" d="m55.5 93.5-3 2h-10c3.873-1.93 8.206-2.597 13-2Z"/></svg>